<?xml version="1.0" standalone="no"?>
<!DOCTYPE svg PUBLIC "-//W3C//DTD SVG 20010904//EN"
 "http://www.w3.org/TR/2001/REC-SVG-20010904/DTD/svg10.dtd">
<svg version="1.0" xmlns="http://www.w3.org/2000/svg"
 width="1095.000000pt" height="1095.000000pt" viewBox="0 0 1095.000000 1095.000000"
 preserveAspectRatio="xMidYMid meet">
<metadata>
Created by potrace 1.11, written by Peter Selinger 2001-2013
</metadata>
<g transform="translate(0.000000,1095.000000) scale(0.100000,-0.100000)"
fill="#000000" stroke="none">
<path d="M5391 10656 c-51 -61 104 -116 187 -66 49 30 40 84 -14 78 -25 -3
-29 -7 -29 -33 0 -26 -4 -30 -30 -31 -44 -2 -54 5 -52 34 2 22 -3 28 -24 30
-14 2 -31 -4 -38 -12z"/>
<path d="M5250 10536 c0 -7 14 -16 30 -19 l30 -6 0 -143 c0 -79 -4 -148 -8
-154 -4 -7 -16 -13 -27 -15 -11 -3 -20 -10 -20 -17 0 -10 27 -14 108 -16 92
-2 107 0 105 13 -2 8 -14 18 -28 21 -48 11 -35 40 55 130 l85 85 0 -96 c0 -98
-7 -119 -43 -119 -12 0 -17 -6 -15 -17 3 -16 16 -18 108 -18 85 0 105 3 105
15 0 8 -11 17 -25 20 l-25 6 -3 152 -3 152 31 6 c16 4 30 13 30 20 0 11 -23
14 -110 14 -89 0 -110 -3 -110 -14 0 -8 10 -16 21 -18 12 -2 27 -11 32 -20 9
-13 -2 -30 -58 -90 -109 -116 -105 -116 -105 -6 0 97 8 118 42 118 10 0 18 7
18 15 0 12 -19 15 -110 15 -87 0 -110 -3 -110 -14z"/>
<path d="M4830 10514 c-36 -7 -80 -12 -97 -13 -25 -1 -33 -6 -33 -19 0 -13 7
-18 21 -18 12 1 26 -7 32 -16 9 -14 -1 -35 -58 -118 l-70 -102 -13 73 c-17
103 -13 143 16 147 20 3 29 21 17 33 -9 10 -209 -27 -213 -39 -2 -7 6 -12 21
-12 13 0 29 -6 35 -12 11 -15 52 -279 45 -291 -3 -5 -16 -12 -29 -17 -16 -6
-22 -14 -18 -25 4 -9 13 -14 21 -11 7 3 54 11 103 17 92 12 119 31 61 42 -16
3 -31 13 -34 21 -5 13 114 197 131 204 7 2 32 -139 32 -179 0 -9 -11 -21 -25
-27 -25 -12 -37 -49 -12 -39 7 3 54 11 105 18 62 9 92 17 92 26 0 7 -8 13 -19
13 -32 0 -42 24 -62 160 -21 134 -18 160 17 160 19 0 26 16 11 27 -7 5 -38 4
-77 -3z"/>
<path d="M6480 10448 c0 -6 8 -21 19 -32 17 -20 91 -236 91 -268 0 -9 -7 -21
-15 -28 -13 -10 -19 -10 -34 4 -11 10 -31 16 -48 14 -23 -2 -29 -9 -31 -33 -3
-19 2 -33 14 -42 23 -17 74 -16 98 2 10 8 23 12 28 9 5 -3 7 -2 6 3 -5 13 159
203 168 195 4 -4 4 -2 1 4 -7 12 48 67 76 77 29 11 11 25 -48 37 -63 13 -77
11 -81 -12 -1 -11 3 -15 12 -11 29 11 27 -28 -3 -60 -16 -18 -39 -44 -50 -59
l-20 -26 -21 67 c-29 88 -28 101 4 101 18 0 25 5 22 17 -2 12 -25 21 -83 34
-97 22 -105 22 -105 7z"/>
<path d="M3988 10346 c-96 -30 -128 -56 -69 -56 16 0 33 -6 38 -12 12 -16 36
-98 30 -104 -2 -2 -35 -15 -74 -28 l-70 -24 -18 59 c-10 33 -16 61 -14 62 2 2
14 10 26 18 14 10 19 20 14 28 -6 10 -27 7 -97 -14 -49 -15 -95 -29 -101 -31
-23 -6 -2 -34 21 -28 13 3 27 0 33 -8 13 -15 83 -242 83 -268 0 -10 -10 -24
-22 -33 -17 -11 -20 -18 -12 -27 8 -8 21 -7 50 4 21 8 65 22 97 31 63 18 79
45 26 45 -25 0 -32 6 -45 36 -8 19 -17 47 -20 62 -5 26 -3 29 63 50 38 12 72
22 75 22 2 0 13 -28 23 -61 l19 -62 -22 -17 c-23 -19 -29 -40 -12 -40 9 0 86
23 189 56 21 7 -6 33 -28 27 -26 -7 -34 10 -75 139 -42 135 -43 144 -16 158
19 10 29 51 13 49 -5 -1 -52 -15 -105 -33z"/>
<path d="M7167 10276 c-4 -9 4 -22 19 -33 l25 -18 -52 -138 -52 -137 -33 0
c-63 0 -37 -25 63 -63 71 -26 100 -32 105 -24 5 7 -2 19 -16 30 l-24 17 21 64
20 63 74 -26 c40 -14 73 -29 73 -33 0 -4 -9 -32 -21 -63 -19 -52 -22 -55 -55
-55 -63 0 -37 -25 64 -63 65 -24 100 -33 107 -26 7 7 1 17 -17 30 l-27 20 38
107 c55 154 65 172 101 172 60 0 31 27 -67 62 -77 28 -99 32 -101 21 -2 -7 6
-21 18 -31 l21 -17 -22 -58 c-12 -32 -27 -56 -33 -54 -6 2 -39 15 -74 27 -49
18 -62 26 -56 39 3 9 13 35 21 59 14 38 18 42 49 42 61 0 39 26 -48 57 -46 17
-90 33 -99 37 -10 5 -19 2 -22 -8z"/>
<path d="M3140 10028 c-19 -10 -61 -29 -92 -43 -63 -27 -71 -54 -16 -51 29 1
32 -3 91 -127 50 -106 59 -132 49 -145 -39 -55 -26 -62 45 -25 32 16 74 36 93
43 58 22 116 67 130 100 11 25 10 38 -1 72 -11 34 -21 44 -58 61 -43 19 -46
19 -100 2 -31 -9 -61 -22 -68 -27 -9 -7 -19 5 -39 43 l-26 53 22 18 c14 11 19
22 13 31 -7 11 -14 10 -43 -5z m167 -173 c31 -22 48 -78 31 -104 -31 -51 -68
-33 -103 48 -19 42 -19 44 0 57 24 18 45 18 72 -1z"/>
<path d="M7910 9961 c0 -10 7 -21 15 -25 25 -9 17 -36 -48 -161 l-63 -120 -37
3 c-63 5 -43 -20 56 -71 50 -26 95 -48 100 -47 13 0 7 30 -7 36 -29 11 -23 35
43 160 l67 129 38 -3 c60 -6 41 16 -64 70 -52 26 -95 48 -97 48 -2 0 -3 -9 -3
-19z"/>
<path d="M5455 9865 c-11 -4 -133 -15 -502 -42 -232 -17 -233 -17 -233 -40 0
-19 5 -23 33 -23 62 0 66 -13 86 -266 10 -126 16 -236 14 -245 -4 -16 -21 -25
-76 -43 -11 -3 -17 -13 -15 -23 4 -20 11 -21 183 -9 157 10 175 14 175 35 0
14 -10 20 -39 25 -21 3 -44 13 -51 21 -21 25 -55 485 -37 502 8 8 55 15 128
19 99 6 117 5 122 -8 9 -26 41 -474 34 -491 -3 -10 -26 -22 -50 -29 -38 -10
-43 -14 -39 -35 4 -20 9 -23 36 -18 28 5 281 25 314 25 8 0 12 9 10 23 -2 17
-10 23 -39 25 -63 5 -65 13 -85 275 -17 233 -17 237 2 252 10 8 32 17 47 20
22 5 27 12 25 28 -3 21 -22 30 -43 22z"/>
<path d="M5912 9802 c-69 -25 -140 -86 -177 -153 -28 -50 -30 -62 -30 -154 0
-92 2 -104 29 -153 118 -212 435 -255 608 -82 65 65 88 124 88 226 0 134 -83
256 -205 304 -83 33 -237 38 -313 12z m233 -51 c57 -26 91 -70 105 -137 21
-101 -11 -269 -65 -340 -51 -67 -150 -84 -222 -37 -75 48 -103 141 -84 277 28
200 136 296 266 237z"/>
<path d="M2551 9705 c-73 -47 -136 -85 -141 -85 -4 0 -6 -9 -3 -20 4 -16 9
-18 25 -9 35 19 64 -4 104 -82 22 -44 38 -93 41 -125 6 -52 5 -54 -19 -54 -33
0 -62 -32 -53 -59 9 -28 41 -36 70 -17 34 23 47 52 47 106 0 59 -14 104 -63
202 l-39 77 22 16 c13 8 27 15 33 15 10 0 165 -229 165 -245 0 -5 -10 -19 -21
-32 -19 -20 -20 -23 -6 -29 11 -4 42 11 84 38 38 25 76 47 86 51 17 6 23 28
11 40 -3 3 -17 1 -30 -5 -31 -14 -38 -7 -128 135 l-69 108 22 23 c19 20 19 36
1 36 -4 0 -67 -38 -139 -85z"/>
<path d="M8385 9699 c-4 -5 1 -19 11 -30 17 -19 17 -21 0 -52 -9 -18 -45 -72
-79 -122 -61 -88 -63 -90 -100 -87 -49 4 -47 -11 6 -45 23 -15 55 -38 71 -51
87 -70 193 -93 234 -49 29 32 36 68 19 109 l-15 36 38 6 c43 7 57 21 66 63 9
47 -18 85 -98 139 -40 27 -86 59 -101 71 -32 26 -43 28 -52 12z m147 -126 c38
-34 5 -98 -50 -100 -19 0 -36 5 -38 12 -5 12 51 105 63 105 4 0 15 -7 25 -17z
m-80 -154 c24 -31 18 -58 -18 -94 -30 -30 -48 -31 -75 -4 -22 22 -23 19 32
107 17 28 36 25 61 -9z"/>
<path d="M6825 9639 c-5 -16 -3 -25 6 -28 26 -8 59 -51 59 -76 0 -39 -56 -175
-99 -241 -36 -57 -131 -154 -149 -154 -4 0 -21 14 -37 30 -62 64 -150 16 -119
-65 18 -45 119 -59 188 -25 89 43 199 192 266 362 18 46 37 87 41 92 5 6 33 2
69 -9 46 -14 60 -22 57 -34 -24 -80 -159 -457 -169 -468 -9 -11 -24 -14 -55
-9 -35 5 -44 2 -53 -14 -12 -22 -12 -22 60 -45 45 -14 224 -76 266 -92 6 -2
14 5 17 16 4 15 -5 26 -34 46 -21 14 -39 32 -39 41 0 22 148 445 162 462 9 10
25 13 56 9 38 -4 45 -2 52 17 7 20 0 23 -104 57 -61 20 -176 60 -256 89 -80
28 -152 54 -162 57 -11 3 -19 -3 -23 -18z"/>
<path d="M3859 9583 c-20 -5 -23 -39 -40 -378 -12 -237 -18 -269 -60 -304 -13
-11 -17 -23 -13 -38 l6 -22 52 20 c28 12 78 30 111 41 72 25 68 22 60 47 -5
16 -12 19 -36 14 -46 -9 -69 18 -69 81 l0 51 83 28 c121 42 118 42 155 -4 40
-51 41 -74 2 -94 -32 -17 -35 -22 -21 -44 8 -12 24 -9 98 18 48 18 117 42 153
54 36 12 67 22 68 23 2 2 1 12 -3 24 -5 17 -12 20 -30 16 -13 -3 -35 -1 -49 6
-23 10 -279 287 -390 421 -38 46 -44 49 -77 40z m105 -300 c60 -67 61 -71 24
-86 -48 -20 -109 -40 -111 -35 -1 1 -1 51 1 111 l3 107 27 -32 c15 -18 40 -48
56 -65z"/>
<path d="M7552 9355 c-9 -20 -8 -25 6 -30 9 -3 26 -17 36 -32 l19 -26 -51
-101 c-89 -175 -167 -315 -185 -333 -15 -15 -21 -16 -52 -4 -28 10 -39 10 -50
1 -8 -7 -15 -16 -15 -20 0 -5 51 -34 113 -66 61 -31 129 -68 150 -81 22 -14
45 -22 53 -19 15 6 16 56 1 53 -5 -1 -18 10 -30 26 l-21 27 42 83 c23 45 74
143 115 217 73 134 74 135 108 133 19 -1 46 -3 60 -6 21 -4 25 -1 24 16 -1 16
-22 32 -81 62 -43 22 -113 59 -155 82 l-76 42 -11 -24z"/>
<path d="M3284 9340 c-36 -14 -72 -67 -80 -116 -3 -25 -2 -77 5 -114 17 -108
16 -118 -30 -163 l-41 -41 -18 24 c-11 14 -36 58 -57 98 l-38 73 33 29 c34 32
37 37 23 58 -10 16 -37 4 -113 -47 -24 -16 -78 -48 -121 -71 -73 -40 -91 -60
-66 -76 6 -3 29 -1 51 7 49 16 48 17 147 -150 130 -221 151 -260 151 -279 0
-11 -14 -32 -30 -46 -26 -22 -29 -29 -20 -46 12 -23 27 -18 85 25 17 12 76 47
133 79 56 31 102 59 102 62 0 2 -5 13 -12 23 -11 17 -14 18 -34 4 -13 -8 -35
-13 -51 -11 -23 2 -37 18 -85 98 -52 87 -56 96 -40 108 47 36 67 29 218 -82
55 -41 75 -50 118 -54 95 -7 176 59 176 146 0 27 -4 32 -23 32 -14 0 -26 -9
-32 -22 -15 -35 -44 -32 -119 12 -83 49 -143 70 -199 70 l-42 0 1 108 c1 140
-1 132 38 132 46 0 86 33 86 71 0 55 -56 84 -116 59z"/>
<path d="M8957 9286 c-3 -8 1 -20 9 -26 8 -7 14 -18 14 -25 0 -16 -179 -219
-197 -223 -8 -2 -21 2 -29 9 -12 10 -17 10 -27 0 -9 -10 -3 -20 28 -48 46 -42
135 -123 182 -167 l33 -30 40 43 c22 23 40 46 40 51 0 13 -37 13 -45 0 -3 -5
-20 -10 -36 -10 -20 0 -28 4 -23 12 5 7 3 8 -5 3 -16 -9 -61 33 -61 58 0 24
57 97 76 97 19 0 28 -43 15 -68 -8 -15 -8 -23 0 -28 15 -9 120 103 113 121 -5
13 -10 13 -35 -1 -22 -11 -34 -12 -49 -4 -11 6 -20 13 -20 17 0 8 71 87 83 92
4 2 22 -12 39 -30 25 -28 29 -40 25 -71 -8 -58 13 -66 51 -18 18 21 32 42 32
45 0 4 -11 16 -25 27 -14 11 -22 24 -19 30 4 6 2 8 -3 5 -11 -7 -34 10 -135
101 -32 28 -60 52 -62 52 -2 0 -6 -6 -9 -14z"/>
<path d="M1924 9246 c-3 -8 18 -88 46 -177 37 -117 50 -173 47 -197 -9 -53 0
-63 31 -33 15 15 40 36 56 47 20 15 27 26 23 38 -5 13 -11 15 -25 7 -23 -12
-47 3 -56 35 -5 17 3 29 40 57 45 35 47 36 75 21 31 -16 36 -33 17 -52 -9 -9
-9 -15 0 -24 9 -9 18 -6 40 15 16 15 32 24 37 20 4 -5 5 -3 2 3 -3 6 14 26 38
44 25 19 45 37 45 41 0 15 -20 20 -39 9 -17 -9 -48 4 -185 75 -90 47 -169 85
-175 85 -7 0 -14 -6 -17 -14z m124 -142 l46 -27 -30 -23 c-16 -13 -32 -24 -35
-24 -3 0 -12 23 -21 50 -9 28 -14 50 -10 50 3 0 26 -12 50 -26z"/>
<path d="M8005 9045 c-27 -36 -52 -65 -56 -65 -13 0 -5 -28 12 -38 13 -8 24
-6 50 14 20 14 47 24 68 24 35 0 121 -43 121 -60 0 -16 -92 -135 -102 -132 -5
1 -7 -2 -3 -8 8 -13 -60 -102 -70 -92 -5 4 -6 2 -2 -3 3 -6 -9 -30 -26 -53
-18 -22 -43 -57 -57 -77 -31 -44 -60 -52 -100 -28 -31 18 -32 18 -45 -1 -13
-17 -9 -23 58 -72 39 -30 76 -54 80 -54 5 0 5 -5 1 -12 -4 -6 -3 -8 3 -5 5 3
34 -14 64 -39 29 -24 60 -44 67 -44 25 0 24 30 -2 60 -14 17 -24 39 -23 49 2
10 34 61 72 112 185 252 209 285 216 293 11 12 64 -28 88 -68 24 -37 27 -73
10 -110 -9 -20 -9 -29 1 -41 7 -8 16 -15 20 -15 7 0 71 91 103 146 7 11 -35
46 -153 129 -30 21 -59 42 -65 47 -5 4 -50 38 -100 75 -49 37 -108 82 -129
100 -22 18 -42 33 -45 33 -3 -1 -28 -30 -56 -65z"/>
<path d="M5275 9089 c-1071 -49 -2100 -545 -2816 -1360 -464 -527 -788 -1182
-924 -1864 -84 -417 -99 -943 -39 -1355 33 -229 106 -539 172 -730 44 -126
125 -319 132 -315 4 3 16 34 25 69 17 62 17 67 0 108 -40 98 -118 342 -150
468 -202 800 -150 1632 151 2397 57 145 176 394 232 487 23 37 42 69 42 71 0
2 22 39 49 82 115 186 297 427 314 416 6 -4 7 -1 3 6 -5 7 2 23 17 39 14 15
69 76 123 135 135 150 451 429 593 523 20 12 70 46 111 74 190 131 487 287
719 380 333 132 690 220 1071 262 148 16 610 16 760 -1 689 -75 1298 -300
1854 -685 63 -44 112 -84 109 -90 -3 -5 -2 -6 4 -3 27 17 439 -357 596 -542
40 -46 79 -92 88 -101 50 -53 158 -204 152 -213 -3 -7 -3 -9 2 -5 18 17 207
-284 321 -513 225 -450 358 -918 404 -1424 13 -143 13 -518 0 -665 -31 -345
-115 -717 -229 -1022 l-41 -107 21 -66 c11 -36 24 -63 29 -60 26 16 159 405
214 627 83 334 110 576 110 963 0 321 -11 457 -60 725 -83 456 -263 939 -487
1309 -31 51 -54 99 -50 105 3 6 3 8 -2 4 -4 -4 -42 43 -84 105 -42 61 -101
145 -131 185 -30 41 -54 78 -52 83 1 5 -2 8 -7 7 -5 -2 -45 40 -89 92 -81 96
-182 201 -308 321 -295 280 -715 561 -1084 726 -592 265 -1212 382 -1865 352z"/>
<path d="M1477 8816 c-37 -41 -67 -79 -67 -85 0 -15 17 -14 43 4 21 13 25 11
69 -28 l47 -42 -52 -57 -52 -58 -45 40 c-42 38 -44 42 -33 70 7 19 8 32 2 36
-10 6 -38 -12 -52 -34 -5 -7 -12 -10 -18 -7 -5 3 -6 0 -3 -8 3 -8 -14 -31 -39
-54 -31 -29 -42 -45 -36 -55 7 -10 12 -11 29 0 11 6 25 12 30 12 17 0 220
-183 220 -198 0 -7 -5 -22 -10 -32 -7 -13 -7 -21 1 -26 16 -10 144 134 145
163 l1 24 -22 -21 c-30 -28 -43 -25 -94 20 l-44 38 48 56 c26 31 53 56 59 56
7 0 31 -19 54 -43 l43 -43 -23 -29 c-12 -16 -17 -26 -11 -22 6 4 14 1 16 -5 4
-9 17 -1 38 22 69 75 109 122 109 129 0 17 -14 19 -36 4 -23 -14 -26 -14 -57
10 -17 14 -66 56 -107 93 -74 68 -83 85 -65 127 17 40 -25 13 -88 -57z"/>
<path d="M9458 8813 c-10 -13 -10 -17 0 -20 29 -10 6 -46 -84 -129 -117 -108
-119 -110 -148 -91 -29 19 -61 5 -36 -16 25 -21 106 -111 117 -131 7 -12 17
-17 27 -13 16 6 16 9 0 39 -16 31 -16 32 7 50 13 10 33 27 44 38 27 27 37 25
62 -8 64 -86 192 -78 209 14 9 51 -10 87 -102 191 -73 82 -84 90 -96 76z m106
-149 c24 -23 19 -54 -11 -86 -32 -33 -52 -35 -84 -8 l-24 20 50 45 c27 25 50
45 52 45 1 0 9 -7 17 -16z"/>
<path d="M2345 8680 c-15 -16 -33 -27 -38 -23 -6 3 -7 2 -4 -3 3 -5 -35 -43
-84 -84 -49 -41 -89 -80 -89 -88 0 -21 27 -25 52 -8 37 26 53 19 116 -51 33
-38 98 -112 146 -166 47 -54 83 -103 80 -109 -4 -7 -2 -8 4 -4 12 7 32 -23 32
-50 0 -10 -10 -28 -22 -41 -20 -22 -21 -25 -6 -40 16 -15 23 -11 95 53 43 38
100 87 127 108 118 95 176 180 176 255 -1 47 -36 108 -81 138 -35 23 -53 28
-103 28 -71 -1 -114 -20 -199 -89 -30 -25 -58 -46 -61 -46 -14 0 -116 136
-116 154 0 11 10 30 21 43 18 18 20 25 9 38 -17 21 -22 19 -55 -15z m385 -248
c57 -58 69 -96 44 -144 -34 -66 -73 -75 -119 -25 -48 50 -125 143 -125 151 0
3 19 19 42 36 63 46 99 42 158 -18z"/>
<path d="M8700 8575 c-10 -12 -8 -20 9 -41 12 -15 21 -36 21 -47 0 -25 -324
-344 -358 -353 -16 -4 -33 0 -52 15 -29 21 -64 19 -58 -4 2 -7 80 -93 175
-191 94 -99 181 -190 192 -203 l21 -24 57 53 c32 29 64 59 71 65 17 15 5 45
-18 45 -10 0 -23 -6 -29 -14 -18 -21 -69 -27 -105 -12 -18 7 -51 31 -74 53
-58 55 -57 86 6 156 26 29 59 63 74 75 l28 23 20 -33 c23 -37 21 -89 -4 -117
-12 -13 -13 -20 -4 -29 7 -7 17 -12 22 -12 15 0 186 172 186 187 0 21 -20 25
-45 9 -35 -23 -75 -20 -110 8 l-30 25 40 36 c22 20 59 55 82 78 l43 41 30 -29
c41 -39 80 -108 80 -140 0 -15 -8 -40 -17 -56 -16 -27 -16 -30 0 -46 16 -16
20 -14 77 42 63 63 69 75 45 95 -8 7 -12 17 -8 23 3 5 1 7 -5 4 -5 -4 -84 69
-175 163 -90 93 -167 170 -169 170 -3 0 -11 -7 -18 -15z"/>
<path d="M4872 8543 c-40 -19 -62 -59 -62 -109 0 -30 7 -44 38 -73 l38 -36
-24 -20 c-34 -29 -40 -92 -12 -127 53 -69 205 -55 245 22 8 16 15 50 15 76 0
41 -5 51 -37 83 l-38 36 17 35 c23 47 13 87 -26 111 -38 23 -109 24 -154 2z
m94 -31 c22 -14 35 -53 29 -83 -6 -25 -10 -29 -28 -23 -48 15 -63 23 -81 43
-18 19 -18 22 -2 46 16 25 57 34 82 17z m41 -222 c46 -28 54 -67 19 -97 -30
-26 -62 -29 -88 -9 -48 36 -40 126 10 126 15 0 42 -9 59 -20z"/>
<path d="M5938 8553 c-53 -4 -67 -28 -23 -39 30 -7 30 -5 4 -163 -21 -125 -34
-156 -67 -156 -9 0 -18 -7 -20 -16 -2 -13 13 -18 80 -28 46 -6 93 -14 106 -17
32 -9 30 24 -3 36 -14 5 -25 17 -25 27 0 17 43 277 56 336 6 30 11 29 -108 20z"/>
<path d="M1932 8298 c-15 -15 -15 -41 -1 -55 8 -8 -1 -17 -34 -31 -75 -33
-155 -129 -177 -213 -18 -67 -14 -157 9 -220 26 -69 103 -149 181 -187 77 -38
182 -38 260 -1 102 48 186 156 206 262 6 35 9 38 34 32 18 -4 31 -1 41 11 14
18 8 25 -111 122 -47 38 -55 41 -68 28 -14 -13 -12 -22 16 -79 39 -78 40 -117
7 -173 -33 -56 -96 -94 -157 -94 -136 0 -327 177 -328 303 0 119 131 200 245
153 34 -15 40 -13 58 21 5 7 -25 34 -75 70 -100 70 -91 66 -106 51z"/>
<path d="M3878 8155 c-60 -65 -63 -95 -8 -65 20 11 43 -19 128 -167 47 -80 49
-89 26 -114 -11 -12 -13 -23 -7 -34 8 -14 12 -14 34 3 13 11 50 34 81 52 65
36 75 47 60 62 -8 8 -15 8 -25 0 -17 -15 -61 13 -53 34 3 8 2 13 -2 11 -4 -1
-9 3 -11 8 -3 6 -9 15 -14 20 -5 6 -39 61 -76 124 -36 63 -71 115 -76 117 -6
1 -31 -22 -57 -51z"/>
<path d="M6910 8195 c-42 -19 -87 -60 -106 -98 -9 -16 -20 -25 -26 -21 -6 4
-8 3 -5 -3 4 -6 0 -30 -8 -53 -28 -81 -11 -170 35 -185 11 -4 18 -10 15 -14
-2 -5 23 -8 58 -7 47 1 70 6 93 23 92 66 78 210 -23 229 -40 8 -41 13 -7 53
53 64 89 60 96 -10 2 -28 7 -35 29 -37 64 -7 59 80 -6 111 -53 25 -105 29
-145 12z m25 -175 c18 -20 18 -22 -5 -70 -13 -27 -35 -61 -50 -75 -24 -23 -31
-25 -49 -16 -28 16 -27 31 11 106 27 56 39 68 69 74 3 0 14 -8 24 -19z"/>
<path d="M9806 8195 c-77 -27 -136 -106 -136 -183 0 -54 45 -139 91 -171 26
-18 36 -31 33 -44 -10 -32 24 -29 75 9 51 36 62 62 25 56 -75 -11 -96 -7 -125
26 -31 35 -38 77 -18 115 17 32 61 77 76 77 7 0 13 4 13 9 0 13 58 31 102 31
76 0 118 -74 80 -143 -21 -38 -21 -57 -1 -57 5 0 32 17 59 37 39 29 47 40 38
50 -6 8 -17 12 -24 9 -7 -3 -15 6 -18 19 -3 13 -10 34 -15 47 -5 13 -9 26 -10
31 -2 14 -69 67 -105 82 -43 18 -89 18 -140 0z"/>
<path d="M1015 8177 c-61 -24 -93 -51 -126 -106 -30 -48 -34 -63 -33 -116 3
-83 5 -91 48 -135 46 -48 91 -63 166 -58 49 4 65 10 104 42 107 87 125 243 37
326 -57 54 -132 72 -196 47z m76 -97 c19 -10 54 -37 77 -60 54 -54 58 -101 13
-149 -39 -41 -87 -42 -157 -2 -127 73 -153 176 -58 226 33 17 69 13 125 -15z"/>
<path d="M9239 8010 c-13 -8 -15 -20 -12 -54 4 -36 -3 -69 -35 -158 -22 -62
-48 -136 -58 -165 -10 -29 -20 -50 -23 -49 -3 2 -55 9 -116 15 -133 14 -174
25 -209 52 -24 19 -29 20 -42 7 -13 -13 -6 -28 57 -122 58 -87 74 -105 85 -95
9 7 13 27 12 53 l-3 41 72 3 c40 2 85 -1 101 -5 l28 -8 -28 -93 c-17 -52 -36
-96 -44 -99 -9 -3 -27 5 -42 19 -23 21 -62 28 -62 11 0 -3 43 -70 96 -149 67
-101 101 -143 111 -139 8 3 16 5 19 5 2 0 1 20 -2 44 -6 37 3 72 51 215 l58
171 96 -6 c118 -7 196 -26 225 -53 20 -19 24 -19 42 -7 19 14 19 15 -4 45 -13
17 -20 37 -16 43 4 6 3 8 -3 5 -6 -4 -30 23 -54 61 -24 37 -44 68 -45 70 -1 2
-12 -1 -23 -8 -20 -10 -20 -12 -5 -42 27 -53 -1 -65 -138 -60 l-57 2 25 72
c39 114 68 144 96 98 15 -23 31 -26 46 -7 8 10 -6 37 -59 112 -39 55 -75 109
-79 120 -18 41 -44 64 -61 55z"/>
<path d="M3279 7734 c-15 -18 -13 -62 4 -82 6 -7 25 -12 46 -10 26 2 39 10 50
29 13 24 13 29 -2 53 -21 31 -76 36 -98 10z"/>
<path d="M7580 7725 c-10 -18 -11 -33 -4 -53 8 -22 16 -28 49 -30 43 -4 65 14
65 54 0 55 -85 77 -110 29z"/>
<path d="M10293 7672 c-7 -4 -11 -21 -10 -37 2 -29 -3 -32 -123 -92 -69 -34
-128 -62 -133 -63 -4 0 -15 9 -24 20 -17 20 -43 27 -43 13 0 -5 19 -49 42
-100 45 -97 68 -117 68 -59 0 19 4 38 10 41 5 3 63 -10 127 -31 l118 -36 -93
-47 -94 -46 -18 23 c-20 25 -40 29 -40 8 0 -7 20 -55 45 -105 45 -92 69 -110
63 -48 -3 32 -1 33 122 94 69 34 130 62 137 63 6 0 19 -10 27 -22 12 -17 19
-19 28 -10 9 9 1 33 -35 107 -29 58 -51 93 -58 89 -6 -3 -9 -17 -6 -31 2 -13
-2 -30 -9 -38 -14 -13 -66 -1 -207 47 l-38 14 90 44 91 44 22 -21 c28 -25 53
-20 37 8 -5 11 -7 25 -3 32 4 7 3 8 -2 4 -5 -5 -24 23 -44 67 -24 51 -39 73
-47 68z"/>
<path d="M575 7515 c-20 -41 -40 -73 -43 -71 -4 2 -8 -9 -9 -25 -3 -34 12 -37
41 -10 21 19 22 19 154 -47 l133 -66 -6 -33 c-4 -24 -2 -33 7 -33 15 0 110
184 101 194 -10 10 -18 7 -41 -14 l-21 -20 -128 62 c-127 62 -128 63 -128 97
0 57 -20 46 -60 -34z"/>
<path d="M5408 7553 c-26 -30 -28 -41 -18 -67 11 -29 4 -33 -26 -12 -18 13
-45 20 -70 17 -6 0 -17 -15 -24 -31 -13 -30 -11 -68 8 -200 l8 -56 -33 16
c-22 10 -31 20 -26 30 27 66 4 125 -46 113 -14 -3 -31 -10 -37 -14 -6 -5 -13
-7 -15 -5 -2 3 -3 -21 -1 -53 l4 -58 -48 -18 -48 -18 -31 38 c-71 91 -83 101
-102 89 -11 -7 -25 -39 -36 -80 -10 -37 -23 -74 -29 -81 -14 -18 -103 -43
-149 -43 -43 0 -59 -19 -59 -69 l0 -31 -187 0 c-220 0 -259 5 -266 31 -4 16
-15 19 -62 19 -47 0 -58 -3 -62 -19 -7 -27 -55 -31 -393 -31 -341 0 -390 4
-390 31 0 16 -8 19 -60 19 -53 0 -60 -2 -60 -20 0 -16 -7 -20 -30 -20 -28 0
-30 -2 -30 -40 0 -29 4 -40 15 -40 13 0 15 -21 15 -130 l0 -130 -25 0 c-19 0
-25 -5 -25 -21 0 -19 -4 -20 -150 -17 l-150 3 0 -87 0 -88 29 0 c24 0 34 -8
54 -42 13 -24 72 -122 131 -218 l106 -175 -40 -3 -40 -3 0 -60 c0 -54 4 -66
45 -127 33 -50 45 -76 45 -104 l0 -38 -642 -2 -643 -3 -3 -22 -3 -23 645 0
646 0 0 -40 0 -40 -650 0 c-512 0 -651 -3 -655 -12 -2 -7 -6 -34 -10 -60 l-6
-48 655 0 c431 0 656 -3 656 -10 0 -7 -225 -10 -655 -10 l-655 0 0 -25 0 -25
655 0 655 0 0 -57 c1 -123 -31 -1362 -36 -1430 -5 -63 -8 -73 -25 -73 -12 0
-19 -7 -19 -19 0 -24 -15 -36 -65 -51 -31 -10 -47 -24 -71 -61 -18 -26 -29
-50 -26 -53 3 -4 20 -6 39 -6 l33 0 0 -125 0 -125 170 0 c163 0 170 -1 170
-20 0 -19 -7 -20 -204 -20 l-205 0 -3 -42 -3 -43 -82 -3 -83 -3 0 306 c0 298
0 305 20 305 18 0 20 7 20 80 l0 79 55 3 56 3 -93 72 c-51 40 -113 90 -138
113 -25 22 -55 43 -66 46 -21 5 -82 -34 -284 -183 l-65 -48 58 -3 57 -3 0 -79
c0 -73 2 -80 20 -80 20 0 20 -7 20 -345 l0 -345 253 -2 252 -3 3 -92 3 -93
-171 0 c-93 0 -170 -3 -170 -8 0 -4 14 -24 31 -45 l30 -37 140 0 139 0 0 -30
0 -30 -115 0 c-63 0 -115 -4 -115 -8 0 -24 30 -32 127 -32 l103 0 0 -75 0 -75
-35 0 c-19 0 -35 -3 -35 -6 0 -13 30 -34 49 -34 15 0 21 -7 21 -22 1 -25 73
-112 84 -101 3 3 6 15 6 25 0 17 12 18 170 18 l170 0 0 -120 0 -120 -67 0 -68
-1 24 -19 c15 -13 38 -20 67 -20 l44 0 0 -144 c0 -87 4 -147 10 -151 6 -4 7
-11 4 -17 -4 -6 -3 -8 3 -5 6 4 50 -20 99 -52 970 -638 2207 -795 3309 -419
285 97 620 260 857 418 l38 25 0 173 0 172 83 0 c66 0 87 4 107 20 l25 20
-107 0 -108 0 0 120 0 120 190 0 190 0 0 -40 c0 -22 4 -40 9 -40 5 0 53 46
107 103 94 97 97 102 71 105 -26 3 -27 5 -27 73 l0 69 88 0 c76 0 89 2 100 20
12 19 10 20 -88 20 l-100 0 0 30 0 30 124 0 124 0 32 43 31 42 -154 5 -155 5
37 92 36 93 181 0 181 0 26 39 c14 21 23 42 20 45 -4 3 -21 6 -40 6 l-33 0 0
299 c0 290 1 299 20 304 18 5 20 14 20 81 l0 75 52 3 52 3 -101 82 c-139 114
-191 153 -204 153 -11 0 -107 -65 -218 -148 l-31 -23 0 640 0 641 520 0 520 0
0 30 0 30 -675 0 c-443 0 -675 3 -675 10 0 7 230 10 670 10 l670 0 0 38 c0 20
-3 47 -6 60 l-6 22 -396 0 -396 0 39 40 39 40 353 0 c208 0 353 4 353 9 0 42
23 41 -631 41 l-619 0 5 23 c8 38 35 189 35 198 0 5 -16 9 -35 9 l-35 0 0 49
c0 27 -5 51 -11 53 -7 2 6 40 31 96 24 51 47 89 53 85 6 -3 7 -1 3 6 -4 7 4
35 17 64 14 29 39 82 56 119 27 61 32 67 63 70 l33 3 3 83 3 82 -151 0 -150 0
0 150 c0 138 1 151 18 148 14 -2 18 5 20 40 3 41 2 42 -26 42 -21 0 -31 6 -35
20 -4 17 -14 20 -62 20 -47 0 -58 -3 -62 -19 -7 -27 -55 -31 -393 -31 -341 0
-390 4 -390 31 0 16 -8 19 -60 19 -52 0 -60 -3 -60 -19 0 -25 -50 -31 -270
-31 -176 0 -178 0 -184 23 -3 12 -6 37 -6 55 l0 34 -57 -6 c-90 -10 -113 1
-148 68 -47 90 -104 122 -153 88 -39 -28 -129 -55 -157 -48 -29 7 -30 14 -10
52 31 59 7 114 -49 114 -40 0 -66 -26 -66 -66 0 -18 -10 -38 -25 -52 l-25 -24
-10 27 c-5 14 -10 30 -10 34 0 5 -7 14 -15 21 -9 7 -14 19 -11 26 3 8 2 13 -2
12 -4 -1 -24 13 -44 31 -32 29 -35 37 -27 58 15 40 10 71 -13 87 -29 21 -61
20 -80 -1z m-2155 -560 c-24 -2 -62 -2 -85 0 -24 2 -5 4 42 4 47 0 66 -2 43
-4z m4530 0 c-23 -2 -64 -2 -90 0 -26 2 -7 3 42 3 50 0 71 -1 48 -3z m-4415
-125 c-2 -62 -7 -93 -15 -96 -10 -3 -13 20 -13 92 0 80 3 96 15 96 13 0 15
-15 13 -92z m72 2 c0 -83 -1 -90 -20 -90 -19 0 -20 7 -20 90 0 83 1 90 20 90
19 0 20 -7 20 -90z m70 0 c0 -73 -3 -90 -15 -90 -12 0 -15 17 -15 90 0 73 3
90 15 90 12 0 15 -17 15 -90z m70 0 c0 -73 -3 -90 -15 -90 -12 0 -15 17 -15
90 0 73 3 90 15 90 12 0 15 -17 15 -90z m240 1 c0 -66 -4 -92 -15 -101 -13
-11 -15 0 -15 89 0 83 3 101 15 101 12 0 15 -17 15 -89z m70 -1 c0 -73 -3 -90
-15 -90 -12 0 -15 17 -15 90 0 73 3 90 15 90 12 0 15 -17 15 -90z m70 0 c0
-73 -3 -90 -15 -90 -12 0 -15 17 -15 90 0 73 3 90 15 90 12 0 15 -17 15 -90z
m948 84 c21 -6 22 -10 22 -135 l0 -129 -365 0 -365 0 0 129 c0 115 2 130 18
134 26 7 664 8 690 1z m901 0 l31 -6 0 -129 0 -129 -365 0 -365 0 0 129 c0
115 2 130 18 134 27 7 646 8 681 1z m909 0 c21 -6 22 -10 22 -135 l0 -129
-365 0 -365 0 0 129 c0 115 2 130 18 134 26 7 664 8 690 1z m272 -83 c0 -66
-4 -92 -15 -101 -13 -11 -15 0 -15 89 0 83 3 101 15 101 12 0 15 -17 15 -89z
m70 -1 c0 -73 -3 -90 -15 -90 -12 0 -15 17 -15 90 0 73 3 90 15 90 12 0 15
-17 15 -90z m70 0 c0 -73 -3 -90 -15 -90 -12 0 -15 17 -15 90 0 73 3 90 15 90
12 0 15 -17 15 -90z m70 0 c0 -73 -3 -90 -15 -90 -12 0 -15 17 -15 90 0 73 3
90 15 90 12 0 15 -17 15 -90z m240 1 c0 -66 -4 -92 -15 -101 -13 -11 -15 0
-15 89 0 83 3 101 15 101 12 0 15 -17 15 -89z m70 -1 c0 -73 -3 -90 -15 -90
-12 0 -15 17 -15 90 0 73 3 90 15 90 12 0 15 -17 15 -90z m70 0 c0 -73 -3 -90
-15 -90 -12 0 -15 17 -15 90 0 73 3 90 15 90 12 0 15 -17 15 -90z m-4322 -47
l-3 -128 -47 -3 -48 -3 0 130 0 131 50 0 51 0 -3 -127z m452 -3 l0 -130 -50 0
-50 0 0 130 0 130 50 0 50 0 0 -130z m320 45 c0 -69 -3 -85 -15 -85 -12 0 -15
16 -15 85 0 69 3 85 15 85 12 0 15 -16 15 -85z m130 -45 l0 -130 -45 0 -45 0
0 130 0 130 45 0 45 0 0 -130z m910 0 l0 -130 -50 0 -50 0 0 130 0 130 50 0
50 0 0 -130z m900 0 l0 -130 -45 0 -45 0 0 130 0 130 45 0 45 0 0 -130z m910
0 l0 -130 -50 0 -50 0 0 130 0 130 50 0 50 0 0 -130z m450 -1 l0 -130 -47 3
-48 3 -3 128 -3 127 51 0 50 0 0 -131z m320 46 c0 -69 -3 -85 -15 -85 -12 0
-15 16 -15 85 0 69 3 85 15 85 12 0 15 -16 15 -85z m130 -45 l0 -130 -45 0
-45 0 0 130 0 130 45 0 45 0 0 -130z m-1162 -167 c-641 -2 -1694 -2 -2340 0
-645 1 -120 2 1167 2 1287 0 1815 -1 1173 -2z m1462 -83 l0 -50 -2640 0 -2640
0 0 50 0 50 2640 0 2640 0 0 -50z m-260 -440 l0 -90 -2350 0 -2350 0 0 90 0
90 2350 0 2350 0 0 -90z m10 -155 l0 -25 -2390 0 -2390 0 0 25 0 25 2390 0
2390 0 0 -25z m-4532 -147 l-3 -93 -75 0 -75 0 -6 35 c-3 19 -22 61 -43 93
l-37 57 121 0 121 0 -3 -92z m900 0 l-3 -93 -75 0 -75 0 -5 36 c-4 20 -21 59
-38 88 -18 28 -32 53 -32 56 0 3 52 5 115 5 l116 0 -3 -92z m900 -5 l3 -93
-81 0 -80 0 0 31 c0 17 -16 60 -36 95 l-36 65 113 -3 114 -3 3 -92z m902 2 l0
-95 -80 0 -80 0 0 35 c0 20 -10 52 -23 73 -13 20 -29 47 -36 60 l-12 22 116 0
115 0 0 -95z m900 0 l0 -95 -81 0 -81 0 3 34 c2 23 -5 46 -22 72 -14 22 -31
49 -38 62 l-12 22 116 0 115 0 0 -95z m945 63 c-4 -18 -12 -60 -18 -93 l-12
-60 -77 -3 -78 -3 0 31 c0 17 -11 48 -25 70 -14 22 -23 40 -19 40 3 0 -2 7
-10 16 -9 8 -16 20 -16 25 0 5 57 9 130 9 l131 0 -6 -32z m-4545 -228 c0 -18
-7 -20 -80 -20 -73 0 -80 2 -80 20 0 18 7 20 80 20 73 0 80 -2 80 -20z m900 0
c0 -18 -7 -20 -80 -20 -73 0 -80 2 -80 20 0 18 7 20 80 20 73 0 80 -2 80 -20z
m900 0 c0 -18 -7 -20 -80 -20 -73 0 -80 2 -80 20 0 18 7 20 80 20 73 0 80 -2
80 -20z m900 0 c0 -18 -7 -20 -80 -20 -73 0 -80 2 -80 20 0 18 7 20 80 20 73
0 80 -2 80 -20z m900 0 c0 -18 -7 -20 -80 -20 -60 0 -80 3 -80 13 0 23 11 27
87 27 66 0 73 -2 73 -20z m-2905 -302 c-3 -134 -8 -276 -11 -315 l-6 -73 -209
0 c-115 0 -209 4 -209 9 0 28 38 36 199 41 l166 5 3 263 2 262 -42 0 -41 0 23
25 c19 21 33 25 77 25 l54 0 -6 -242z m900 232 c3 -5 3 -147 -1 -315 l-7 -305
-214 0 c-127 0 -213 4 -213 9 0 6 10 17 22 25 18 13 54 16 185 16 l163 0 0
265 0 265 -35 0 c-39 0 -42 5 -18 32 18 20 107 26 118 8z m902 -222 c-4 -128
-7 -270 -7 -315 l0 -83 -215 0 c-118 0 -215 3 -215 6 0 3 10 14 23 25 19 16
41 18 185 19 l162 0 0 264 0 265 -36 3 -35 3 21 23 c16 17 32 22 72 22 l51 0
-6 -232z m903 120 c0 -62 -3 -204 -7 -315 l-6 -203 -214 0 c-117 0 -213 4
-213 9 0 5 11 16 25 25 20 13 54 16 185 16 l160 0 0 265 0 265 -35 0 c-41 0
-43 5 -12 31 14 12 38 18 70 19 l47 0 0 -112z m912 -68 c-1 -96 -5 -237 -8
-313 l-6 -138 -220 1 -220 1 23 25 c22 24 26 24 186 24 l163 0 0 265 0 265
-42 0 -43 0 30 25 c25 22 37 25 85 23 l55 -3 -3 -175z m-4362 -710 l0 -880
-81 0 -82 0 7 143 c3 78 13 455 21 837 9 382 18 714 21 738 l5 42 55 0 54 0 0
-880z m910 0 l0 -880 -85 0 c-82 0 -85 1 -85 23 0 12 7 252 15 532 7 281 16
629 20 775 3 146 8 302 11 348 l6 82 59 0 59 0 0 -880z m898 -2 l2 -878 -85 0
-85 0 5 103 c3 56 12 388 20 737 8 349 18 699 21 778 l6 143 57 -3 56 -3 3
-877z m897 2 l0 -875 -81 -3 -81 -3 3 93 c3 51 11 365 19 698 8 333 18 687 21
788 l6 183 57 -3 56 -3 0 -875z m283 349 c-19 -12 -24 495 -6 515 11 11 14
-36 16 -247 2 -202 -1 -262 -10 -268z m622 -349 l0 -880 -82 0 -81 0 7 308 c4
169 13 541 21 827 8 286 15 544 15 573 l0 52 60 0 60 0 0 -880z m870 5 l0
-875 -62 0 -61 0 6 173 c3 94 14 488 24 875 l17 702 38 0 38 0 0 -875z m-4200
341 c-7 -7 -10 74 -10 250 0 144 3 264 8 268 4 4 8 -108 10 -250 1 -165 -1
-261 -8 -268z m900 0 c-7 -7 -10 74 -10 250 0 144 3 264 8 268 4 4 8 -108 10
-250 1 -165 -1 -261 -8 -268z m900 0 c-7 -7 -10 74 -10 250 0 144 3 264 8 268
4 4 8 -108 10 -250 1 -165 -1 -261 -8 -268z m1820 265 c0 -218 -2 -261 -15
-271 -13 -11 -15 18 -15 252 0 146 3 268 7 271 20 20 23 -16 23 -252z m-3310
-31 l0 -180 -115 0 -115 0 0 180 0 180 115 0 115 0 0 -180z m900 0 l0 -180
-115 0 -115 0 0 180 0 180 115 0 115 0 0 -180z m900 0 l0 -180 -115 0 -115 0
0 180 0 180 115 0 115 0 0 -180z m900 0 l0 -180 -110 0 -110 0 0 180 0 180
110 0 110 0 0 -180z m900 0 l0 -180 -110 0 -110 0 0 180 0 180 110 0 110 0 0
-180z m-3465 -672 c-3 -167 -8 -313 -11 -326 -4 -19 -10 -23 -36 -20 -26 3
-33 9 -45 42 -49 144 -233 195 -340 94 l-23 -21 0 238 0 239 27 28 27 28 204
0 203 0 -6 -302z m905 204 c0 -54 -3 -201 -7 -326 l-6 -227 -35 3 c-29 3 -36
8 -47 40 -18 55 -37 80 -85 113 -38 27 -52 30 -116 30 -65 0 -77 -3 -118 -32
l-46 -33 0 237 0 237 27 28 27 28 203 0 203 0 0 -98z m900 -30 c0 -71 -3 -217
-7 -325 l-6 -197 -31 0 c-28 0 -34 7 -61 62 -21 44 -43 71 -73 93 -39 27 -52
30 -117 30 -67 0 -78 -3 -119 -32 l-46 -33 0 238 0 238 31 27 31 27 199 0 199
0 0 -128z m903 8 c-2 -63 -6 -208 -9 -322 l-6 -208 -33 0 c-30 0 -33 3 -45 45
-15 53 -78 116 -134 135 -61 20 -139 8 -191 -28 l-45 -32 0 232 0 232 32 33
32 33 201 -2 200 -3 -2 -115z m912 -122 c-3 -134 -8 -280 -11 -325 l-6 -83
-37 0 c-36 0 -39 2 -50 41 -16 54 -83 126 -130 139 -84 23 -151 9 -208 -44
l-33 -30 0 239 0 239 32 33 32 33 208 0 209 0 -6 -242z m-3823 -358 c-1 -6 2
-9 8 -5 14 9 30 -38 30 -91 l0 -44 -40 0 -40 0 0 91 0 91 23 -15 c12 -8 21
-21 19 -27z m902 11 c26 -28 45 -80 46 -128 0 -21 -5 -23 -45 -23 l-45 0 0 90
c0 50 4 90 8 90 5 0 21 -13 36 -29z m901 2 c27 -30 45 -80 45 -125 0 -26 -3
-28 -45 -28 l-45 0 0 90 c0 51 4 90 10 90 5 0 21 -12 35 -27z m894 6 c30 -28
51 -79 51 -124 0 -35 0 -35 -45 -35 l-45 0 0 90 c0 50 4 90 8 90 5 0 19 -10
31 -21z m917 -15 c20 -25 29 -51 32 -90 l4 -54 -41 0 -41 0 0 90 c0 50 4 90 9
90 6 0 22 -16 37 -36z m-1906 -69 c0 -73 -1 -75 -25 -75 -19 0 -25 5 -25 23 0
45 30 127 46 127 2 0 4 -34 4 -75z m900 0 c0 -74 0 -75 -26 -75 -26 0 -27 1
-21 45 6 42 31 105 42 105 3 0 5 -34 5 -75z m900 0 c0 -74 0 -75 -26 -75 -25
0 -26 2 -20 41 7 44 31 109 40 109 4 0 6 -34 6 -75z m-3610 -5 c0 -65 -2 -70
-21 -70 -20 0 -21 4 -16 50 6 46 21 90 32 90 3 0 5 -31 5 -70z m900 0 c0 -65
-2 -70 -21 -70 -20 0 -21 4 -16 43 5 44 23 97 32 97 3 0 5 -31 5 -70z m-1989
-110 l54 -49 -80 0 c-44 -1 -97 2 -117 5 l-38 7 58 43 c31 24 60 44 63 44 3 0
30 -22 60 -50z m1379 -69 c0 -174 -9 -241 -31 -241 -12 0 -19 -9 -22 -27 -2
-16 -5 65 -6 180 l-1 207 30 0 30 0 0 -119z m900 -61 l0 -180 -24 0 c-19 0
-26 -6 -29 -27 -2 -16 -5 65 -6 180 l-1 207 30 0 30 0 0 -180z m906 149 c-3
-17 -6 -98 -6 -180 l0 -149 -24 0 c-19 0 -26 -6 -29 -27 -2 -16 -5 65 -6 180
l-1 207 36 0 c36 0 36 -1 30 -31z m900 -30 c-3 -34 -6 -115 -6 -180 l0 -119
-24 0 c-19 0 -26 -6 -29 -27 -2 -16 -5 65 -6 180 l-1 207 36 0 37 0 -7 -61z
m914 -22 c0 -46 -3 -125 -6 -175 -6 -82 -9 -91 -28 -94 -15 -2 -22 -11 -24
-30 -2 -16 -8 -28 -13 -28 -5 0 -9 85 -9 205 l0 205 40 0 40 0 0 -83z m870 33
l55 -50 -90 1 c-49 1 -103 4 -118 8 l-28 6 51 38 c28 21 56 35 62 31 7 -4 8
-3 4 4 -16 26 12 9 64 -38z m-4780 -250 c0 -193 -1 -200 -20 -200 -19 0 -20 7
-20 200 0 193 1 200 20 200 19 0 20 -7 20 -200z m140 29 c0 -157 -2 -173 -21
-200 -11 -16 -29 -29 -40 -29 -18 0 -19 9 -19 200 l0 200 40 0 40 0 0 -171z
m760 -29 c0 -193 -1 -200 -20 -200 -19 0 -20 7 -20 200 0 193 1 200 20 200 19
0 20 -7 20 -200z m150 33 c0 -163 -1 -167 -26 -200 -14 -18 -34 -33 -45 -33
-18 0 -19 8 -19 200 l0 200 45 0 45 0 0 -167z m760 -33 l0 -200 -25 0 -25 0 0
200 0 200 25 0 25 0 0 -200z m131 25 c-3 -148 -6 -174 -23 -197 -11 -16 -28
-28 -39 -28 -18 0 -19 9 -19 201 l0 200 43 -3 42 -3 -4 -170z m769 -25 l0
-200 -25 0 -25 0 0 200 0 200 25 0 25 0 0 -200z m140 36 c0 -154 -2 -167 -22
-200 -15 -23 -31 -35 -45 -36 l-23 0 0 193 c0 107 3 197 7 200 3 4 24 7 45 7
l38 0 0 -164z m760 -36 l0 -200 -25 0 -25 0 0 193 c0 107 3 197 7 200 3 4 15
7 25 7 17 0 18 -13 18 -200z m140 25 c0 -193 -8 -225 -56 -225 l-24 0 0 200 0
200 40 0 40 0 0 -175z m749 38 c-2 -73 -1 -78 19 -81 22 -3 22 -3 22 -303 l0
-299 -35 0 -35 0 0 380 c0 338 2 380 16 380 13 0 15 -13 13 -77z m-5499 7 l0
-40 -160 0 -160 0 0 40 0 40 160 0 160 0 0 -40z m5868 -2 l3 -38 -165 0 -166
0 0 40 0 40 163 -2 162 -3 3 -37z m-5908 -394 l0 -305 -47 3 -48 3 -3 303 -2
302 50 0 50 0 0 -306z m5870 6 l0 -300 -50 0 -50 0 0 300 0 300 50 0 50 0 0
-300z m-150 -10 c0 -283 0 -290 -20 -290 -19 0 -20 7 -20 261 0 229 2 265 17
290 10 16 19 29 20 29 2 0 3 -130 3 -290z m-5870 -10 c0 -283 0 -290 -20 -290
-20 0 -20 7 -20 268 0 226 2 271 16 290 8 12 17 22 20 22 2 0 4 -130 4 -290z
m770 230 c0 -6 -40 -10 -100 -10 -60 0 -100 4 -100 10 0 6 40 10 100 10 60 0
100 -4 100 -10z m910 0 c0 -6 -42 -10 -105 -10 -63 0 -105 4 -105 10 0 6 42
10 105 10 63 0 105 -4 105 -10z m900 0 c0 -6 -42 -10 -105 -10 -63 0 -105 4
-105 10 0 6 42 10 105 10 63 0 105 -4 105 -10z m900 0 c0 -6 -40 -10 -100 -10
-60 0 -100 4 -100 10 0 6 40 10 100 10 60 0 100 -4 100 -10z m900 0 c0 -6 -40
-10 -100 -10 -60 0 -100 4 -100 10 0 6 40 10 100 10 60 0 100 -4 100 -10z
m1010 0 c0 -6 -57 -10 -150 -10 -93 0 -150 4 -150 10 0 6 57 10 150 10 93 0
150 -4 150 -10z m-4620 -70 c0 -6 -55 -10 -147 -9 -92 0 -140 4 -128 9 29 12
275 12 275 0z m910 0 c0 -6 -57 -10 -152 -9 -95 0 -145 4 -133 9 29 12 285 12
285 0z m900 0 c0 -6 -57 -10 -152 -9 -95 0 -145 4 -133 9 29 12 285 12 285 0z
m900 0 c0 -6 -55 -10 -147 -9 -92 0 -140 4 -128 9 29 12 275 12 275 0z m900 0
c0 -6 -57 -10 -152 -9 -92 1 -143 4 -128 9 37 12 280 12 280 0z m1010 0 c0 -6
-72 -10 -197 -9 -115 1 -187 4 -173 9 38 12 370 12 370 0z m-4050 -85 c0 -22
-425 -22 -454 0 -18 13 7 15 217 15 204 0 237 -2 237 -15z m900 0 c0 -13 -31
-15 -219 -15 -182 0 -221 3 -231 15 -11 13 14 15 219 15 199 0 231 -2 231 -15z
m900 0 c0 -13 -31 -15 -219 -15 -182 0 -221 3 -231 15 -11 13 14 15 219 15
199 0 231 -2 231 -15z m900 0 c0 -13 -31 -15 -219 -15 -182 0 -221 3 -231 15
-11 13 14 15 219 15 199 0 231 -2 231 -15z m910 -1 c0 -21 -426 -20 -455 2
-18 13 5 15 218 14 199 -1 237 -4 237 -16z m-4180 -99 l0 -85 -140 0 -140 0 0
85 0 85 140 0 140 0 0 -85z m910 0 l0 -85 -145 0 -145 0 0 85 0 85 145 0 145
0 0 -85z m900 0 l0 -85 -145 0 -145 0 0 85 0 85 145 0 145 0 0 -85z m900 0 l0
-85 -145 0 -145 0 0 85 0 85 145 0 145 0 0 -85z m900 0 l0 -85 -145 0 -145 0
0 85 0 85 145 0 145 0 0 -85z m1060 0 l0 -85 -215 0 -215 0 0 85 0 85 215 0
215 0 0 -85z m-4440 -25 c0 -53 -2 -60 -20 -60 -18 0 -20 7 -20 60 0 53 2 60
20 60 18 0 20 -7 20 -60z m80 0 c0 -33 -4 -60 -10 -60 -6 0 -10 27 -10 60 0
33 4 60 10 60 6 0 10 -27 10 -60z m80 0 c0 -33 -4 -60 -10 -60 -6 0 -10 27
-10 60 0 33 4 60 10 60 6 0 10 -27 10 -60z m80 0 c0 -33 -4 -60 -10 -60 -6 0
-10 27 -10 60 0 33 4 60 10 60 6 0 10 -27 10 -60z m80 0 c0 -33 -4 -60 -10
-60 -6 0 -10 27 -10 60 0 33 4 60 10 60 6 0 10 -27 10 -60z m580 0 c0 -53 -2
-60 -20 -60 -18 0 -20 7 -20 60 0 53 2 60 20 60 18 0 20 -7 20 -60z m80 0 c0
-33 -4 -60 -10 -60 -6 0 -10 27 -10 60 0 33 4 60 10 60 6 0 10 -27 10 -60z
m80 0 c0 -33 -4 -60 -10 -60 -6 0 -10 27 -10 60 0 33 4 60 10 60 6 0 10 -27
10 -60z m80 0 c0 -33 -4 -60 -10 -60 -6 0 -10 27 -10 60 0 33 4 60 10 60 6 0
10 -27 10 -60z m90 0 c0 -47 -3 -60 -15 -60 -12 0 -15 13 -15 60 0 47 3 60 15
60 12 0 15 -13 15 -60z m570 0 c0 -47 -3 -60 -15 -60 -12 0 -15 13 -15 60 0
47 3 60 15 60 12 0 15 -13 15 -60z m80 0 c0 -33 -4 -60 -10 -60 -6 0 -10 27
-10 60 0 33 4 60 10 60 6 0 10 -27 10 -60z m80 0 c0 -33 -4 -60 -10 -60 -6 0
-10 27 -10 60 0 33 4 60 10 60 6 0 10 -27 10 -60z m90 0 c0 -47 -3 -60 -15
-60 -12 0 -15 13 -15 60 0 47 3 60 15 60 12 0 15 -13 15 -60z m80 0 c0 -47 -3
-60 -15 -60 -12 0 -15 13 -15 60 0 47 3 60 15 60 12 0 15 -13 15 -60z m570 0
c0 -47 -3 -60 -15 -60 -12 0 -15 13 -15 60 0 47 3 60 15 60 12 0 15 -13 15
-60z m80 0 c0 -33 -4 -60 -10 -60 -6 0 -10 27 -10 60 0 33 4 60 10 60 6 0 10
-27 10 -60z m90 0 c0 -47 -3 -60 -15 -60 -12 0 -15 13 -15 60 0 47 3 60 15 60
12 0 15 -13 15 -60z m80 0 c0 -47 -3 -60 -15 -60 -12 0 -15 13 -15 60 0 47 3
60 15 60 12 0 15 -13 15 -60z m80 0 c0 -47 -3 -60 -15 -60 -12 0 -15 13 -15
60 0 47 3 60 15 60 12 0 15 -13 15 -60z m578 3 c-2 -46 -7 -59 -20 -61 -16 -3
-18 5 -18 57 0 55 2 61 20 61 19 0 21 -5 18 -57z m82 -3 c0 -47 -3 -60 -15
-60 -12 0 -15 13 -15 60 0 47 3 60 15 60 12 0 15 -13 15 -60z m80 0 c0 -47 -3
-60 -15 -60 -12 0 -15 13 -15 60 0 47 3 60 15 60 12 0 15 -13 15 -60z m80 0
c0 -47 -3 -60 -15 -60 -12 0 -15 13 -15 60 0 47 3 60 15 60 12 0 15 -13 15
-60z m80 0 c0 -33 -4 -60 -10 -60 -6 0 -10 27 -10 60 0 33 4 60 10 60 6 0 10
-27 10 -60z m-3250 -130 c0 -20 -5 -20 -380 -20 -220 1 -380 5 -380 10 0 26
51 29 398 30 357 0 362 0 362 -20z m900 0 c0 -20 -7 -20 -380 -20 -378 0 -380
0 -368 20 12 19 24 20 380 20 361 0 368 0 368 -20z m900 0 c0 -20 -7 -20 -382
-20 -380 0 -381 0 -363 20 17 19 31 20 382 20 356 0 363 0 363 -20z m900 0 c0
-20 -7 -20 -382 -20 -380 0 -381 0 -363 20 17 19 31 20 382 20 356 0 363 0
363 -20z m1080 -5 c11 -13 -42 -15 -465 -15 -423 0 -476 2 -465 15 11 13 75
15 465 15 390 0 454 -2 465 -15z m-3546 -222 c14 -71 26 -131 26 -134 0 -3
-29 -21 -65 -39 l-65 -33 -22 28 c-12 16 -40 56 -63 89 l-40 61 -224 0 -223 0
-38 -100 c-66 -174 -54 -156 -94 -140 -45 19 -104 19 -148 1 l-34 -15 -49 130
-48 129 -184 0 -183 0 0 75 0 75 713 0 714 0 27 -127z m166 117 c0 -5 -8 -47
-19 -92 -10 -46 -22 -100 -25 -120 -6 -32 -11 -38 -31 -38 -14 0 -25 2 -25 4
0 3 -11 56 -25 120 -14 64 -25 120 -25 126 0 6 31 10 75 10 41 0 75 -4 75 -10z
m801 -120 c16 -69 28 -128 28 -131 1 -3 -18 -11 -41 -18 -23 -7 -51 -19 -63
-27 -20 -13 -25 -10 -91 71 l-69 85 -151 0 -151 0 -34 -33 c-19 -19 -55 -52
-80 -76 l-47 -42 -56 18 c-37 12 -56 23 -56 34 0 9 11 66 25 127 14 61 25 113
25 117 0 3 165 4 367 3 l367 -3 27 -125z m167 118 c-3 -7 -16 -66 -29 -130
-22 -108 -25 -118 -46 -118 -25 0 -29 13 -58 153 -9 43 -19 85 -22 93 -4 11 9
14 77 14 61 0 81 -3 78 -12z m777 -10 c52 -231 54 -248 22 -248 -12 0 -40 -9
-62 -20 -22 -11 -42 -20 -45 -20 -4 0 -31 30 -61 66 -30 37 -60 73 -67 80 -10
11 -50 14 -163 14 l-150 0 -33 -34 c-19 -18 -56 -54 -83 -79 l-50 -47 -38 20
c-22 11 -45 20 -53 20 -8 0 -11 7 -9 18 3 9 15 64 27 122 12 58 24 111 26 118
3 9 85 12 368 12 l366 0 5 -22z m168 -85 c-13 -60 -26 -118 -28 -130 -4 -16
-13 -23 -29 -23 -22 0 -25 8 -45 108 -12 59 -24 117 -27 130 -6 21 -4 22 73
22 l80 0 -24 -107z m1507 32 l0 -75 -194 0 -193 0 -38 -102 c-21 -57 -44 -115
-52 -130 -13 -26 -14 -27 -48 -12 -44 18 -96 18 -140 0 -43 -18 -34 -35 -120
204 l-13 35 -224 0 -223 0 -58 -85 c-31 -46 -61 -88 -66 -93 -4 -4 -25 3 -46
18 -21 14 -49 28 -62 31 -13 4 -23 11 -23 17 0 6 12 68 27 139 l28 128 722 0
723 0 0 -75z m-4654 -235 c39 -103 49 -160 23 -145 -5 4 -9 -1 -9 -9 0 -28
-16 -25 -56 9 l-39 35 -152 0 -153 0 0 115 0 115 171 -2 171 -3 44 -115z m818
108 c7 -7 35 -46 64 -87 l52 -74 -29 -32 c-16 -18 -37 -47 -47 -64 -10 -17
-23 -31 -28 -31 -5 0 -28 16 -52 35 l-42 35 -120 0 c-108 0 -121 -2 -138 -21
-10 -12 -38 -34 -60 -50 l-42 -28 -25 39 -26 38 47 126 47 126 193 0 c142 0
197 -3 206 -12z m978 -13 c6 -14 14 -25 18 -25 4 0 26 -22 48 -49 l42 -49 -41
-44 c-22 -24 -48 -55 -57 -70 -9 -16 -20 -28 -25 -28 -4 0 -37 14 -73 31 l-64
31 -75 -35 -74 -36 -25 42 c-13 23 -41 59 -63 80 l-38 39 72 69 73 69 135 0
c135 0 135 0 147 -25z m943 17 c20 -14 115 -131 115 -140 0 -5 -6 -12 -14 -15
-8 -3 -33 -30 -56 -59 -23 -29 -48 -56 -55 -61 -8 -4 -34 5 -65 23 -57 34 -75
32 -162 -11 -50 -25 -61 -24 -80 9 -9 15 -35 48 -57 74 l-41 46 57 54 c31 29
63 61 72 71 13 14 34 17 146 17 71 0 135 -4 140 -8z m1116 -67 c15 -38 36 -92
47 -120 l20 -50 -34 -39 -33 -38 -59 46 -58 46 -113 0 -113 0 -58 -45 c-54
-42 -59 -44 -65 -25 -4 11 -22 41 -41 65 -19 25 -34 50 -34 56 0 6 25 45 55
86 30 42 55 80 55 84 0 6 88 8 202 7 l202 -3 27 -70z m799 -40 l0 -115 -161 0
-161 0 -48 -40 -48 -40 -20 31 -19 31 39 101 c22 56 44 112 49 125 8 22 11 22
189 22 l180 0 0 -115z m-4716 -187 c35 -30 37 -35 27 -61 -6 -16 -11 -55 -11
-88 l0 -59 -170 0 -170 0 0 120 0 120 143 0 144 0 37 -32z m804 15 c16 -10 43
-30 60 -45 31 -26 32 -30 32 -102 l0 -76 -215 0 -215 0 0 48 c0 26 -3 57 -6
69 -5 17 6 31 58 72 l63 50 97 1 c76 0 104 -4 126 -17z m991 -28 l51 -25 0
-85 0 -85 -145 0 -145 0 0 79 c0 89 0 89 88 131 62 30 65 29 151 -15z m927 12
l59 -33 3 -87 3 -87 -141 0 -140 0 0 88 0 87 78 32 c42 17 78 31 78 32 1 1 28
-14 60 -32z m1121 -11 l58 -44 -3 -76 -4 -76 -219 0 -219 0 0 69 0 69 63 50
62 51 102 0 103 1 57 -44z m873 -76 l0 -120 -189 0 -189 0 -4 68 c-2 37 -7 74
-12 83 -5 12 5 26 41 52 l48 36 153 1 152 0 0 -120z m-4310 -285 l0 -275 -25
0 -25 0 0 275 0 275 25 0 25 0 0 -275z m3880 0 l0 -275 -30 0 -30 0 0 268 c0
148 3 272 7 275 3 4 17 7 30 7 l23 0 0 -275z m-4016 -17 l6 -258 -50 0 -50 0
0 193 0 193 42 67 c23 36 43 65 44 64 1 -1 4 -118 8 -259z m1216 232 l0 -30
-221 0 c-146 0 -218 3 -214 10 4 6 12 7 18 4 7 -4 9 -3 4 1 -4 5 0 17 10 27
15 16 35 18 210 18 l193 0 0 -30z m948 -3 l3 -28 -221 1 c-206 1 -220 3 -208
18 31 41 38 42 233 39 l190 -2 3 -28z m950 1 l3 -28 -227 0 -228 0 29 30 29
30 196 -2 195 -3 3 -27z m762 -229 l0 -260 -47 3 -48 3 -3 185 -2 185 46 73
c26 39 48 72 50 72 2 0 4 -117 4 -261z m-3250 21 l0 -120 -215 0 -215 0 0 120
0 120 215 0 215 0 0 -120z m950 0 l0 -120 -145 0 -145 0 0 120 0 120 145 0
145 0 0 -120z m940 0 l0 -120 -140 0 -140 0 0 120 0 120 140 0 140 0 0 -120z
m1110 0 l0 -120 -220 0 -220 0 0 120 0 120 220 0 220 0 0 -120z m-2700 -385
l0 -485 -47 0 c-27 0 -65 5 -85 11 l-38 10 0 164 0 165 70 0 70 0 0 190 0 190
-70 0 c-63 0 -70 2 -70 20 0 18 7 20 70 20 l70 0 0 70 0 69 -62 3 -63 3 30 28
c24 21 39 27 77 27 l48 0 0 -485z m290 0 l0 -485 -105 0 -105 0 0 175 0 175
75 0 75 0 0 190 0 190 -75 0 c-68 0 -75 2 -75 20 0 18 7 20 75 20 l75 0 0 70
0 70 -75 0 -75 0 0 30 0 30 105 0 105 0 0 -485z m658 3 l-3 -483 -85 0 -85 0
-3 173 -2 172 75 0 75 0 0 190 0 190 -75 0 c-68 0 -75 2 -75 20 0 18 7 20 75
20 l75 0 0 70 0 70 -67 0 -67 0 29 30 c25 26 36 30 82 30 l53 0 -2 -482z m290
0 l-3 -483 -100 0 -100 0 -3 173 -2 172 75 0 75 0 -2 188 -3 187 -73 3 c-63 2
-73 5 -70 20 3 14 17 18 76 20 l73 3 -3 67 -3 67 -72 3 -73 3 0 29 0 30 105 0
105 0 -2 -482z m662 -3 l0 -485 -90 0 -90 0 0 175 0 175 70 0 70 0 0 190 0
190 -70 0 c-63 0 -70 2 -70 20 0 18 7 20 70 20 l70 0 0 70 0 70 -65 0 -65 0
28 30 c24 26 34 30 85 30 l57 0 0 -485z m290 10 l0 -475 -26 -10 c-14 -6 -61
-10 -105 -10 l-79 0 0 175 0 175 73 0 72 0 -3 190 -3 190 -69 0 c-63 0 -70 2
-70 20 0 18 7 20 70 20 l70 0 0 70 0 70 -70 0 -70 0 0 30 0 30 105 0 105 0 0
-475z m-2490 100 l0 -115 -215 0 -215 0 0 115 0 115 215 0 215 0 0 -115z m950
0 l0 -115 -145 0 -145 0 0 115 0 115 145 0 145 0 0 -115z m940 0 l0 -115 -140
0 -140 0 0 115 0 115 140 0 140 0 0 -115z m1110 0 l0 -115 -220 0 -220 0 0
115 0 115 220 0 220 0 0 -115z m-3490 -195 l0 -101 -47 28 c-65 37 -213 131
-242 154 -23 19 -22 19 133 19 l156 0 0 -100z m3880 83 c-1 -10 -20 -31 -43
-47 -48 -34 -217 -135 -264 -160 l-33 -17 0 121 0 120 170 0 c155 0 170 -2
170 -17z m-3390 -158 l0 -115 -162 0 c-159 1 -164 1 -213 29 l-50 27 -3 87 -3
87 216 0 215 0 0 -115z m950 5 l0 -110 -145 0 -145 0 0 110 0 110 145 0 145 0
0 -110z m940 0 l0 -110 -140 0 -140 0 0 110 0 110 140 0 140 0 0 -110z m1110
9 c0 -85 -3 -104 -17 -115 -14 -10 -68 -13 -220 -14 l-203 0 0 115 0 115 220
0 220 0 0 -101z m-3000 -214 l0 -55 -47 19 c-109 43 -135 54 -170 72 l-37 19
127 0 127 0 0 -55z m2880 51 c0 -5 -168 -78 -252 -110 l-68 -25 0 69 0 70 160
0 c88 0 160 -2 160 -4z m-1932 -88 l-3 -83 -142 -3 -143 -3 0 86 0 85 145 0
146 0 -3 -82z m942 -3 l0 -86 -137 3 -138 3 -3 83 -3 82 141 0 140 0 0 -85z
m413 -125 c-46 -18 -343 -80 -493 -102 -137 -20 -193 -23 -490 -23 -350 0
-439 8 -689 55 -108 21 -303 68 -310 76 -2 2 448 4 1000 3 600 0 995 -4 982
-9z"/>
<path d="M1423 7535 c-13 -9 -23 -13 -23 -9 0 19 -85 -105 -137 -201 -33 -60
-73 -132 -88 -159 -27 -46 -27 -50 -10 -62 15 -11 20 -10 37 11 35 45 51 48
110 17 173 -92 366 -202 378 -217 9 -11 9 -23 0 -50 -13 -39 -8 -65 12 -65 11
0 71 91 73 110 0 3 21 41 47 85 80 136 102 193 106 270 3 61 1 75 -20 104 -35
52 -83 74 -143 66 -27 -3 -58 -7 -67 -8 -9 -1 -16 -4 -15 -8 1 -3 -12 -18 -29
-32 l-32 -27 -4 61 c-4 51 -9 65 -35 91 -26 25 -42 32 -85 35 -38 3 -59 0 -75
-12z m82 -170 c44 -33 51 -63 30 -120 l-18 -45 -31 19 c-17 10 -61 35 -98 55
-38 20 -68 41 -68 46 0 5 16 26 36 46 33 32 41 36 76 31 21 -3 54 -17 73 -32z
m240 -95 c50 -24 68 -39 84 -68 26 -48 -14 -122 -65 -122 -34 1 -188 82 -192
102 -3 17 55 87 82 98 32 13 47 11 91 -10z"/>
<path d="M9712 7247 c-7 -8 -7 -18 -2 -27 17 -27 11 -65 -12 -79 -36 -22 -398
-170 -432 -176 -27 -5 -34 -1 -55 30 -25 38 -29 39 -50 26 -12 -8 -4 -34 43
-148 31 -76 61 -148 67 -161 6 -15 16 -22 27 -20 14 3 16 13 14 49 -2 33 2 50
15 61 28 25 192 88 199 77 10 -18 86 -203 91 -225 4 -19 -6 -26 -87 -58 -51
-20 -102 -36 -114 -34 -11 2 -30 17 -41 35 -23 37 -25 38 -48 21 -15 -11 -15
-17 -4 -38 7 -14 32 -72 56 -130 76 -185 68 -172 91 -160 14 8 19 18 15 31 -3
10 -7 28 -11 39 -8 30 19 47 203 122 92 38 182 75 198 83 67 29 71 28 106 -14
26 -33 35 -38 50 -30 20 10 22 3 -38 139 -11 25 -33 80 -49 122 -16 43 -34 78
-40 78 -23 0 -34 -26 -25 -57 12 -41 -5 -65 -61 -88 -24 -9 -64 -25 -90 -36
l-47 -18 -31 77 c-18 42 -33 81 -34 87 -1 5 -10 25 -19 43 -10 18 -16 36 -13
41 10 16 185 83 201 77 9 -3 23 -19 33 -36 17 -29 45 -39 57 -20 3 5 -9 45
-29 87 -19 43 -49 115 -66 161 -31 80 -46 96 -68 69z"/>
<path d="M355 7017 c-15 -45 -33 -92 -41 -104 -12 -18 -11 -22 4 -28 11 -4 22
2 35 19 l18 25 132 -46 c73 -25 136 -49 140 -53 8 -7 -15 -103 -32 -129 -7
-10 -32 -5 -132 29 -157 53 -159 54 -159 90 0 18 -5 30 -13 30 -16 0 -80 -191
-68 -203 12 -12 31 0 31 18 0 27 30 22 161 -24 133 -48 134 -48 134 -79 0 -32
22 -53 30 -29 3 6 30 84 60 172 62 177 74 194 143 195 61 0 55 24 -13 49 -69
26 -70 26 -89 0 l-14 -21 -127 43 c-150 51 -165 60 -148 88 11 17 10 22 -6 31
-17 9 -22 2 -46 -73z"/>
<path d="M1044 6863 c-9 -32 -37 -107 -61 -167 -24 -60 -42 -110 -41 -111 2
-1 12 -5 23 -9 16 -5 25 2 39 28 10 19 25 37 32 40 14 5 426 -143 466 -167 17
-10 19 -19 13 -65 -6 -51 -6 -53 15 -50 18 2 29 22 59 108 21 58 47 127 59
154 27 60 27 72 1 79 -14 4 -22 -1 -28 -16 -5 -12 -18 -31 -30 -41 -20 -18
-22 -18 -83 4 -160 57 -384 144 -397 154 -9 7 -12 25 -9 58 4 35 1 48 -9 53
-28 10 -33 5 -49 -52z"/>
<path d="M10575 6906 c-50 -16 -61 -46 -16 -46 16 0 37 -7 45 -16 25 -24 39
-55 29 -64 -4 -4 -68 -27 -142 -50 l-135 -42 -19 26 c-10 14 -23 26 -29 26
-13 0 -7 -32 23 -133 17 -55 28 -77 39 -75 8 2 14 15 15 32 0 29 2 30 135 73
74 23 141 43 148 43 8 0 12 -16 12 -45 0 -34 -5 -48 -20 -57 -18 -11 -29 -48
-14 -48 14 0 104 33 104 39 0 3 -23 78 -51 166 -28 88 -52 166 -54 173 -5 14
-17 14 -70 -2z"/>
<path d="M10067 6313 c-14 -4 -17 -11 -12 -30 8 -32 -2 -61 -25 -73 -19 -10
-442 -110 -466 -110 -7 0 -24 18 -36 40 -21 36 -45 50 -60 35 -3 -3 7 -56 22
-118 16 -62 34 -138 40 -170 10 -51 14 -58 33 -55 19 3 22 8 19 45 -3 35 0 44
20 56 13 8 123 38 246 66 246 56 252 56 273 -6 11 -35 16 -38 38 -24 12 8 11
26 -12 123 -15 62 -32 139 -38 171 -7 31 -15 56 -18 56 -3 -1 -14 -3 -24 -6z"/>
<path d="M930 6299 c-74 -30 -93 -75 -155 -367 -14 -68 -28 -129 -31 -137 -4
-8 3 -15 18 -17 18 -2 27 5 43 37 25 51 27 51 293 -8 229 -50 247 -59 238
-119 -6 -35 -4 -38 18 -38 21 0 26 6 31 38 4 20 21 96 38 167 41 169 44 301 9
356 -41 67 -143 93 -211 53 -19 -10 -49 -41 -67 -69 -32 -47 -34 -48 -34 -21
0 15 -10 46 -22 67 -33 59 -103 84 -168 58z m93 -176 c43 -22 56 -41 57 -83 0
-63 -6 -65 -116 -40 -55 12 -103 26 -107 30 -13 11 18 75 44 94 30 21 81 21
122 -1z m294 -24 c69 -26 96 -98 55 -149 -22 -28 -46 -29 -154 -6 -95 21 -99
25 -77 83 20 53 58 83 105 83 24 0 55 -5 71 -11z"/>
<path d="M485 6260 c-7 -23 -31 -30 -225 -65 -167 -30 -190 -43 -137 -82 18
-13 79 -55 136 -93 129 -85 151 -105 151 -130 0 -13 7 -20 19 -20 14 0 20 10
24 38 3 20 9 52 12 70 6 25 4 32 -8 32 -8 0 -21 -9 -28 -20 -13 -18 -16 -19
-45 -4 -31 15 -31 15 -21 67 13 66 23 79 61 75 23 -2 31 -8 31 -23 0 -11 7
-23 15 -26 12 -5 19 11 32 75 9 45 17 91 18 104 0 27 -26 30 -35 2z m-155
-186 c-5 -19 -10 -37 -12 -39 -5 -5 -88 48 -88 57 0 7 34 14 81 17 26 1 27 -1
19 -35z"/>
<path d="M10807 6234 c-4 -4 -7 -18 -7 -30 0 -27 -1 -27 -161 -58 -125 -24
-149 -22 -149 10 0 8 -8 14 -18 14 -17 0 -17 -10 12 -167 16 -93 30 -169 31
-170 1 -2 27 2 58 8 64 13 75 33 25 43 -44 9 -70 46 -66 94 3 41 22 54 91 66
35 6 37 5 37 -18 0 -16 -9 -32 -25 -42 -21 -14 -35 -44 -20 -44 4 0 85 16 133
26 32 7 27 28 -10 39 -23 7 -34 17 -36 32 -3 20 3 23 50 30 29 4 57 8 63 8 5
0 12 -16 16 -35 9 -41 -12 -100 -35 -100 -10 0 -16 -9 -16 -21 0 -18 4 -20 26
-15 15 4 40 10 56 13 27 5 30 9 24 37 -53 285 -57 301 -79 280z"/>
<path d="M10175 5761 c-3 -2 -5 -19 -5 -37 0 -63 5 -61 -343 -85 -160 -11
-169 -10 -182 7 -8 11 -17 31 -20 47 -5 21 -12 27 -32 27 -21 0 -24 -4 -20
-22 3 -13 9 -75 12 -138 9 -180 13 -199 35 -193 12 3 21 17 25 42 3 21 15 42
26 49 10 7 66 15 124 19 l105 6 0 -35 c0 -44 -20 -63 -139 -124 -113 -59 -136
-81 -151 -143 -18 -76 9 -149 67 -180 31 -16 40 -14 46 11 4 14 1 26 -8 31
-23 12 -18 44 10 64 142 100 200 157 214 210 l6 23 25 -23 c14 -13 54 -33 89
-45 35 -12 72 -29 82 -37 15 -15 16 -19 2 -54 -13 -33 -13 -43 -2 -67 12 -24
21 -30 58 -32 54 -4 70 15 71 79 0 85 -53 135 -191 179 -80 25 -119 63 -119
115 l0 33 89 7 c112 9 127 4 142 -46 9 -28 18 -39 32 -39 19 0 20 5 13 103
-16 250 -17 256 -38 254 -10 -1 -21 -3 -23 -6z"/>
<path d="M20 5573 c0 -32 -3 -82 -6 -110 -6 -44 -4 -53 9 -53 8 0 20 14 26 30
11 32 23 35 94 24 l37 -7 0 -73 c0 -40 -3 -74 -7 -77 -5 -2 -34 -1 -66 1 -55
4 -58 6 -64 33 -3 16 -11 29 -18 29 -15 0 -25 -54 -25 -142 0 -52 3 -68 14
-68 8 0 17 12 20 26 l7 26 137 -7 c146 -8 172 -14 172 -45 0 -10 4 -21 8 -24
20 -12 27 16 31 112 3 89 1 102 -13 102 -9 0 -16 -8 -16 -20 0 -28 -21 -35
-90 -32 -58 4 -61 5 -56 25 3 12 6 48 6 80 l0 57 34 0 c68 0 97 -11 108 -41 5
-16 16 -29 24 -29 11 0 14 16 14 64 0 35 3 84 6 110 6 37 4 46 -8 46 -9 0 -21
-13 -28 -30 l-12 -29 -127 6 c-146 7 -168 13 -177 48 -3 14 -12 25 -20 25 -10
0 -14 -15 -14 -57z"/>
<path d="M10820 5545 c0 -8 16 -21 35 -29 25 -11 36 -23 43 -48 5 -18 6 -37 2
-41 -4 -4 -70 -12 -146 -17 -145 -9 -164 -5 -164 31 0 11 -7 19 -15 19 -17 0
-19 -40 -8 -153 4 -42 10 -66 17 -64 6 2 12 13 14 25 2 12 11 26 20 31 9 4 79
11 155 15 l137 7 0 -35 c0 -36 -30 -76 -57 -76 -7 0 -13 -7 -13 -15 0 -12 13
-15 55 -15 l55 0 0 93 c0 50 -3 136 -7 190 l-6 97 -59 0 c-45 0 -58 -3 -58
-15z"/>
<path d="M1116 5533 c-11 -3 -36 -16 -57 -30 -53 -35 -80 -104 -86 -221 -5
-76 -8 -92 -20 -88 -8 4 -48 6 -88 6 -63 0 -77 3 -95 22 -11 12 -20 32 -20 44
0 22 -28 41 -41 27 -4 -4 -9 -82 -11 -173 -3 -165 -3 -165 20 -168 17 -3 22 1
22 20 0 13 7 34 16 47 l16 22 222 -7 c121 -3 237 -12 256 -18 31 -10 35 -15
38 -48 3 -32 7 -38 26 -38 22 0 23 3 29 137 10 193 9 302 -3 345 -27 96 -122
147 -224 121z m130 -195 c40 -31 44 -37 44 -86 0 -39 -3 -44 -32 -56 -22 -8
-68 -11 -135 -8 l-103 4 0 27 c0 67 43 140 75 127 9 -3 13 -2 10 4 -4 6 17 10
53 10 46 0 66 -5 88 -22z"/>
<path d="M1764 5176 c-3 -8 -4 -29 -2 -48 l3 -33 153 -3 152 -3 0 51 0 50
-150 0 c-120 0 -152 -3 -156 -14z"/>
<path d="M2280 5140 l0 -50 230 0 230 0 0 50 0 50 -230 0 -230 0 0 -50z"/>
<path d="M8150 5140 l0 -50 231 0 230 0 -3 48 -3 47 -227 3 -228 2 0 -50z"/>
<path d="M8820 5140 l0 -50 183 0 c101 0 186 2 188 4 2 3 3 25 1 50 l-4 46
-184 0 -184 0 0 -50z"/>
<path d="M1760 5030 c0 -41 19 -55 37 -27 4 6 10 -125 13 -293 3 -168 9 -312
13 -320 6 -12 24 -14 92 -12 l85 3 0 345 0 344 -120 0 -120 0 0 -40z m190
-305 l0 -295 -45 0 -45 0 0 295 0 295 45 0 45 0 0 -295z"/>
<path d="M2340 4725 l0 -345 165 0 165 0 0 345 0 345 -165 0 -165 0 0 -345z
m280 0 l0 -295 -45 0 -45 0 0 295 0 295 45 0 45 0 0 -295z m-140 -5 l0 -290
-30 0 -30 0 0 262 0 262 27 28 c15 15 28 28 30 28 2 0 3 -130 3 -290z"/>
<path d="M8200 4725 l0 -345 170 0 170 0 0 345 0 345 -170 0 -170 0 0 -345z
m150 0 l0 -295 -30 0 -30 0 0 262 0 261 26 34 c14 18 27 33 30 33 2 0 4 -133
4 -295z m140 0 l0 -295 -45 0 -45 0 0 295 0 295 45 0 45 0 0 -295z"/>
<path d="M8870 4725 l0 -345 129 0 c119 0 129 1 134 19 6 25 0 31 -35 31 l-28
0 0 295 0 295 45 0 45 0 1 -202 c1 -213 12 -218 23 -13 4 61 9 145 12 188 l5
77 -165 0 -166 0 0 -345z m150 0 l0 -295 -30 0 -30 0 0 265 0 265 27 30 c14
17 28 30 30 30 1 0 3 -133 3 -295z"/>
<path d="M9612 4857 c-16 -138 -16 -147 7 -147 17 0 33 20 35 44 1 5 10 14 21
22 17 11 27 10 69 -8 l48 -22 -6 -85 c-10 -124 -11 -125 -62 -139 -81 -22 -85
-19 -96 53 -4 25 -48 34 -48 10 0 -15 -29 -287 -33 -309 -1 -6 8 -12 19 -14
16 -2 23 3 28 22 9 36 50 61 141 84 44 12 175 48 290 80 210 59 210 59 210 87
0 26 -13 36 -185 132 -102 57 -214 119 -250 138 -89 47 -109 64 -124 110 -9
24 -21 39 -33 41 -18 3 -21 -7 -31 -99z m357 -210 l75 -41 -90 -23 c-49 -12
-97 -23 -107 -23 -18 0 -18 6 -1 118 6 37 -7 40 123 -31z"/>
<path d="M1318 4822 c-13 -2 -18 -13 -18 -35 -1 -64 -8 -66 -262 -104 -260
-38 -273 -37 -284 22 -5 29 -10 35 -31 35 -24 0 -25 -2 -19 -37 7 -45 76 -521
76 -528 0 -3 11 -5 25 -5 22 0 25 4 25 33 0 74 80 103 265 94 111 -5 179 -22
223 -55 22 -17 22 -19 7 -55 -13 -32 -14 -42 -3 -65 11 -22 21 -28 55 -30 38
-3 43 0 58 28 20 38 13 80 -21 132 -27 43 -96 79 -189 99 -61 14 -321 17 -369
5 -33 -8 -53 22 -58 84 l-3 44 45 8 c25 4 137 21 249 38 191 28 206 29 223 13
10 -9 22 -30 26 -47 7 -23 14 -30 28 -28 10 2 21 6 23 8 2 2 -3 48 -12 101 -9
54 -21 131 -26 171 -5 41 -11 75 -13 76 -2 1 -11 1 -20 -2z"/>
<path d="M1855 4248 c3 -13 7 -33 8 -46 1 -15 21 -37 57 -65 l55 -42 -37 -3
c-42 -4 -42 -3 -27 -54 l10 -38 64 0 c51 0 65 3 65 15 0 12 13 15 55 15 35 0
55 4 55 12 0 6 -3 8 -6 5 -6 -6 -88 55 -124 92 -9 9 -23 21 -32 26 -8 6 -42
31 -74 57 -66 54 -77 58 -69 26z"/>
<path d="M8921 4180 c-69 -49 -129 -86 -134 -83 -6 3 -7 1 -3 -5 3 -6 -11 -21
-31 -34 l-38 -23 63 -3 62 -3 0 -79 0 -80 35 0 c19 0 35 4 35 9 0 5 3 16 6 25
4 12 0 16 -15 16 -18 0 -21 6 -21 40 l0 40 79 0 79 0 10 42 c6 23 10 43 9 44
-1 1 -28 5 -60 10 l-58 9 53 39 c29 22 62 39 74 38 17 -1 23 6 28 30 7 34 -7
58 -33 57 -9 0 -72 -40 -140 -89z"/>
<path d="M8975 3853 c-47 -126 -122 -306 -158 -378 -23 -44 -41 -82 -42 -85 0
-3 -23 -45 -49 -95 -94 -173 -286 -460 -299 -450 -4 3 -5 2 -2 -1 2 -4 -13
-29 -34 -55 -171 -215 -289 -340 -463 -492 l-127 -110 27 -33 c15 -18 55 -67
89 -107 l63 -75 -78 -59 c-487 -376 -1033 -624 -1644 -748 -274 -56 -417 -69
-778 -69 -353 -1 -493 11 -755 63 -617 123 -1161 365 -1643 734 l-103 79 23
28 c13 16 51 62 85 103 35 42 63 79 63 84 0 5 -35 37 -77 73 -43 35 -143 129
-223 209 -362 364 -630 777 -826 1274 l-58 149 -28 -84 c-14 -46 -54 -175 -88
-288 -34 -113 -65 -208 -69 -212 -6 -7 -30 6 -379 200 -100 56 -184 102 -187
102 -11 0 -2 -30 61 -188 100 -254 237 -526 364 -727 35 -55 63 -106 63 -112
0 -7 2 -11 5 -8 3 2 30 -32 61 -76 31 -44 61 -88 68 -97 10 -15 3 -24 -58 -70
-38 -29 -74 -50 -80 -47 -5 4 -8 2 -7 -4 2 -5 -12 -23 -31 -38 l-33 -29 75
-96 c41 -53 72 -99 69 -103 -4 -4 -2 -5 3 -3 6 2 54 -46 107 -107 283 -325
598 -601 953 -837 139 -92 400 -244 502 -292 34 -16 59 -34 56 -39 -3 -6 -1
-7 5 -3 6 3 57 -14 114 -40 489 -220 976 -346 1543 -400 219 -21 759 -15 965
10 562 70 1040 206 1530 438 313 149 685 384 939 596 24 21 65 54 90 75 147
123 355 328 500 495 94 107 241 291 241 301 0 11 -47 52 -115 102 -108 79
-104 65 -40 155 31 44 63 87 71 97 7 9 14 20 14 24 0 3 10 20 23 37 13 17 26
39 30 49 4 11 12 15 18 11 7 -4 9 -3 6 4 -4 5 21 57 54 114 34 56 101 182 148
278 88 178 228 516 218 526 -3 3 -128 -64 -279 -149 -150 -86 -276 -153 -279
-149 -3 4 -46 135 -94 292 -48 157 -91 289 -95 293 -4 5 -16 -13 -25 -40z m34
-335 c20 -63 98 -317 107 -350 3 -10 10 -18 16 -18 6 0 72 34 147 77 248 139
271 152 271 145 0 -17 -227 -461 -282 -552 -107 -176 -191 -299 -200 -294 -5
3 -7 2 -6 -3 4 -14 -23 -54 -33 -48 -5 4 -9 3 -8 -2 1 -4 1 -11 0 -15 0 -4
-74 48 -163 116 -90 68 -162 130 -160 137 1 8 -10 0 -25 -16 -62 -68 -255
-199 -428 -290 l-90 -47 45 45 c24 25 49 43 54 40 5 -4 6 -1 2 6 -4 6 25 46
72 99 90 99 153 175 201 245 18 27 37 45 43 41 7 -4 8 -2 4 5 -9 13 28 64 39
53 3 -4 5 -2 3 3 -3 9 47 94 117 201 27 42 79 128 80 134 3 8 170 349 172 350
1 0 10 -28 22 -62z m-6957 -105 c39 -82 72 -154 71 -161 -1 -7 1 -11 4 -8 3 3
36 -47 74 -110 146 -245 324 -482 505 -673 l99 -104 -72 37 c-41 22 -70 43
-66 49 3 6 1 7 -6 3 -19 -12 -206 104 -193 119 4 5 2 5 -5 1 -17 -9 -166 102
-159 119 3 9 -4 12 -23 11 -23 -2 -154 -94 -337 -237 -7 -6 -37 28 -88 101
-42 60 -76 112 -76 115 0 3 -14 24 -30 47 -17 23 -28 48 -26 55 3 7 1 12 -5
10 -24 -5 -268 460 -253 484 4 7 3 9 -3 6 -9 -6 -58 91 -50 99 3 3 81 -39 274
-148 40 -23 69 -46 66 -51 -3 -6 -1 -7 5 -3 6 3 27 -1 46 -11 20 -9 38 -14 41
-11 3 3 33 96 67 207 34 110 63 201 64 201 2 0 36 -66 76 -147z m329 -1007
c266 -312 608 -605 944 -811 61 -38 113 -73 117 -79 4 -6 8 -7 8 -2 0 4 10 2
23 -6 53 -35 281 -150 382 -193 1178 -502 2514 -433 3625 188 83 46 290 177
331 208 20 16 39 26 43 22 3 -3 6 -1 6 5 0 15 86 73 95 64 5 -4 5 -2 2 4 -4 7
5 20 20 30 102 66 504 447 598 566 22 28 49 60 60 72 11 12 28 34 38 49 9 15
22 27 27 27 14 0 470 -347 470 -357 0 -6 -48 -73 -60 -83 -3 -3 -38 -45 -79
-95 -134 -161 -442 -459 -644 -621 -413 -331 -913 -603 -1425 -773 -1191 -397
-2510 -297 -3617 273 -241 124 -570 330 -558 349 3 5 1 7 -5 4 -13 -9 -193
126 -357 269 -181 157 -420 398 -410 414 5 8 4 11 -2 7 -11 -7 -85 72 -183
193 l-52 65 29 22 c15 12 102 79 193 147 91 69 185 141 210 161 l45 36 20 -27
c11 -15 59 -73 106 -128z m5849 -207 l-165 -160 -38 43 c-67 75 -69 70 48 122
58 25 151 70 208 100 56 31 104 55 107 55 3 0 -69 -72 -160 -160z m-5460 60
c96 -47 185 -90 198 -95 l22 -9 -32 -38 c-18 -20 -40 -47 -48 -58 -15 -21 -20
-17 -175 135 -88 87 -155 156 -150 154 6 -2 89 -42 185 -89z"/>
<path d="M2380 2157 c0 -7 5 -18 11 -24 12 -12 -53 -89 -124 -145 -33 -27 -42
-29 -63 -20 -48 23 -25 -21 56 -103 l79 -79 50 24 c37 17 48 27 41 35 -8 9
-20 10 -51 1 -40 -10 -42 -10 -71 23 l-29 33 83 84 c69 71 87 84 106 79 31 -8
26 3 -26 59 -43 47 -62 57 -62 33z"/>
<path d="M8516 2135 c-10 -8 -24 -12 -30 -8 -6 3 -8 3 -4 -1 3 -4 -5 -24 -18
-43 -29 -43 -31 -82 -4 -115 25 -33 57 -38 136 -25 49 9 66 8 78 -2 43 -36 -7
-88 -74 -77 -52 8 -55 -17 -6 -41 33 -15 36 -15 70 7 64 39 85 113 46 163 -27
35 -60 40 -131 22 -57 -15 -63 -15 -80 1 -24 22 -24 36 1 59 14 12 27 15 47
10 35 -8 37 -8 41 3 2 7 -42 63 -50 62 -2 0 -12 -7 -22 -15z"/>
<path d="M8290 1908 c-14 -11 -36 -29 -48 -39 -29 -23 -21 -42 12 -29 26 10
23 15 66 -104 11 -32 19 -61 16 -63 -5 -5 -74 29 -129 64 -29 18 -37 28 -32
43 10 30 -12 24 -58 -15 -22 -19 -44 -35 -49 -35 -4 0 -8 -7 -8 -16 0 -12 7
-14 28 -10 21 5 52 -8 148 -62 117 -66 166 -91 151 -76 -4 4 -3 12 3 19 6 7
-7 59 -36 150 -34 106 -42 144 -34 157 23 40 8 48 -30 16z"/>
<path d="M2665 1891 c-3 -5 -1 -12 5 -16 14 -9 13 -31 -3 -47 -7 -7 -25 -30
-41 -50 -16 -21 -33 -35 -40 -31 -6 3 -8 3 -4 -2 4 -4 -4 -22 -18 -41 -22 -28
-30 -32 -55 -27 -17 3 -29 1 -29 -5 0 -11 100 -102 112 -102 11 0 10 18 -1 39
-8 14 5 35 66 105 62 73 79 87 98 82 40 -10 35 6 -18 55 -54 51 -62 55 -72 40z"/>
<path d="M2875 1690 c-15 -16 -32 -27 -38 -23 -5 3 -4 -4 2 -16 14 -25 15 -25
47 -5 21 14 29 15 49 4 14 -7 25 -17 25 -22 0 -9 -59 -94 -108 -155 -29 -37
-37 -41 -54 -32 -13 7 -24 7 -30 1 -9 -9 109 -102 131 -102 15 0 14 11 -5 31
-15 17 -14 20 7 51 63 90 121 162 127 158 4 -3 6 -9 4 -13 -1 -5 2 -6 7 -3 5
3 14 -1 21 -9 10 -12 10 -21 2 -40 -19 -41 6 -41 45 -1 32 33 37 51 13 51 -11
0 -139 88 -185 127 l-32 27 -28 -29z"/>
<path d="M7895 1599 c-11 -6 -50 -32 -87 -56 -66 -45 -80 -69 -33 -57 20 5 31
-6 89 -89 36 -52 66 -99 66 -105 0 -5 -7 -15 -15 -22 -10 -8 -12 -17 -6 -23
13 -13 157 87 176 123 33 64 1 140 -60 140 -21 0 -25 5 -25 28 0 55 -55 87
-105 61z m33 -55 c28 -19 28 -55 2 -72 -25 -15 -32 -12 -58 32 l-20 34 21 10
c29 14 29 14 55 -4z m83 -100 c20 -10 29 -21 25 -30 -4 -10 -2 -12 6 -8 8 5 9
-1 4 -22 -16 -63 -57 -58 -103 12 -12 19 -13 27 -3 39 7 8 16 12 21 9 5 -3 9
0 9 5 0 15 6 14 41 -5z"/>
<path d="M3221 1435 c-29 -43 -22 -53 20 -32 25 11 38 13 56 4 12 -5 23 -13
23 -17 0 -3 -27 -52 -60 -108 -57 -96 -62 -101 -85 -92 -27 10 -42 -2 -22 -17
42 -33 130 -74 138 -66 6 6 4 14 -6 23 -8 7 -15 17 -15 22 0 6 25 54 56 109
l56 99 29 -15 c31 -17 35 -26 19 -55 -19 -36 12 -35 42 0 29 35 35 50 19 50
-10 0 -202 107 -215 121 -17 16 -30 10 -55 -26z"/>
<path d="M7562 1393 c-67 -38 -77 -53 -34 -53 24 0 33 -11 80 -94 55 -99 59
-115 40 -134 -28 -28 7 -23 67 9 65 34 89 67 41 55 -20 -5 -29 0 -46 24 -12
16 -18 30 -13 30 4 0 3 4 -3 8 -6 4 -28 38 -49 76 -34 61 -37 70 -22 80 8 7
12 17 9 23 -5 8 -28 0 -70 -24z"/>
<path d="M7255 1235 c-60 -30 -116 -54 -122 -54 -16 -1 -16 -18 -2 -60 15 -42
39 -41 39 2 0 27 6 36 26 46 15 6 28 10 29 9 9 -9 95 -202 95 -213 0 -7 -7
-15 -15 -19 -8 -3 -15 -13 -15 -22 0 -8 4 -14 8 -12 88 36 142 65 142 75 0 9
-8 11 -24 7 -22 -5 -28 2 -75 101 -40 84 -49 110 -40 121 15 19 58 18 65 -1 4
-8 13 -15 21 -15 12 0 14 8 8 37 -8 42 -13 53 -23 52 -4 0 -56 -25 -117 -54z"/>
<path d="M3620 1260 c0 -6 5 -18 11 -28 9 -14 1 -39 -39 -124 -46 -97 -53
-107 -76 -105 -50 4 -25 -16 81 -64 92 -42 111 -48 130 -38 19 10 40 55 30 65
-2 2 -18 -3 -36 -12 -33 -17 -64 -13 -94 10 -17 13 -17 16 -1 55 9 22 23 41
31 41 26 0 53 -20 53 -40 0 -32 25 -23 43 15 26 55 18 88 -13 50 -11 -13 -15
-13 -41 1 -16 8 -29 19 -29 25 0 8 27 67 35 77 2 2 19 -4 40 -12 31 -13 36
-20 33 -42 -5 -40 17 -40 41 1 l21 35 -58 27 c-31 14 -59 27 -62 28 -17 6 -64
27 -81 35 -13 8 -19 7 -19 0z"/>
<path d="M3980 1099 c0 -7 7 -17 15 -23 14 -10 11 -24 -22 -120 -22 -62 -44
-110 -53 -113 -8 -3 -21 -7 -29 -9 -18 -6 -3 -23 25 -28 10 -3 38 -11 61 -20
47 -16 71 -4 38 20 -16 12 -17 18 -5 59 12 42 14 45 29 30 9 -8 23 -41 31 -72
12 -45 22 -62 49 -80 33 -22 81 -31 81 -15 0 4 -9 13 -19 19 -18 12 -61 108
-61 138 0 8 11 17 25 21 27 7 55 49 55 82 0 36 -34 63 -120 92 -94 34 -100 35
-100 19z m148 -99 c6 -38 -17 -70 -50 -70 -39 0 -44 20 -19 76 20 45 22 46 43
32 13 -9 25 -26 26 -38z"/>
<path d="M6820 1061 c-75 -29 -101 -51 -58 -51 20 0 27 -13 61 -111 37 -106
38 -112 21 -130 -9 -10 -14 -22 -11 -25 10 -10 137 40 137 54 0 8 -7 11 -19 7
-15 -4 -22 4 -39 45 -20 49 -20 50 -1 47 11 -2 41 -20 68 -40 51 -39 77 -44
130 -26 32 11 38 37 7 31 -19 -3 -106 45 -106 60 0 5 -4 7 -9 4 -5 -3 -14 0
-20 8 -9 10 -8 16 4 26 19 16 19 79 0 103 -23 31 -81 30 -165 -2z m108 -39
c19 -24 15 -70 -7 -82 -32 -17 -38 -12 -55 37 -20 58 -20 67 0 59 9 -4 13 -2
8 5 -10 17 39 0 54 -19z"/>
<path d="M4390 973 c0 -3 7 -14 16 -24 14 -15 13 -25 -6 -100 -34 -134 -40
-149 -61 -149 -42 0 -15 -19 51 -35 76 -19 98 -14 62 13 l-22 17 20 85 c31
131 39 150 61 150 29 0 23 19 -8 26 -16 3 -41 10 -57 15 -34 11 -56 12 -56 2z"/>
<path d="M6450 958 c0 -2 -9 -68 -19 -147 -16 -128 -21 -146 -42 -162 -35 -26
-17 -33 47 -17 61 16 81 34 42 40 -19 2 -23 9 -21 37 1 40 8 47 50 56 29 6 34
3 52 -27 13 -21 17 -36 11 -42 -27 -27 -8 -32 60 -17 73 16 90 34 43 44 -22 5
-44 30 -103 121 -59 92 -79 116 -97 116 -13 0 -23 -1 -23 -2z m61 -139 c7 -13
3 -18 -17 -23 -34 -9 -35 -7 -27 39 6 35 7 37 20 19 8 -10 19 -26 24 -35z"/>
<path d="M4717 903 c-20 -5 -47 -52 -47 -83 0 -30 12 -50 65 -102 47 -48 54
-72 24 -91 -30 -19 -70 1 -86 43 -19 47 -33 43 -33 -9 0 -49 18 -63 84 -69 65
-5 93 8 112 53 19 46 5 79 -57 133 -49 44 -59 68 -37 90 27 27 72 10 79 -32 6
-29 26 -30 33 -2 3 13 8 31 12 39 9 23 -94 44 -149 30z"/>
<path d="M5875 860 c-27 -5 -87 -9 -132 -9 l-83 -1 0 -40 c0 -22 0 -43 -1 -47
0 -4 4 -9 10 -11 6 -2 16 10 22 26 8 22 19 33 40 37 17 4 32 5 34 3 2 -2 7
-59 11 -126 7 -119 7 -122 -14 -122 -24 0 -37 -15 -22 -25 19 -12 160 6 160
20 0 8 -10 15 -22 17 -25 3 -30 29 -40 175 -4 59 -3 62 21 68 25 6 52 -14 64
-48 7 -21 17 -3 23 46 7 52 12 50 -71 37z"/>
<path d="M5274 838 c-3 -4 5 -12 16 -18 19 -10 20 -19 18 -128 -3 -110 -4
-118 -25 -127 -13 -5 -23 -15 -23 -22 0 -10 31 -13 125 -13 l124 0 12 40 c16
53 5 61 -31 22 -31 -34 -44 -38 -84 -22 -23 8 -26 15 -26 55 0 45 0 45 34 45
21 0 36 -6 40 -15 3 -8 12 -15 21 -15 11 0 15 12 15 50 0 36 -4 50 -14 50 -8
0 -16 -7 -20 -15 -3 -9 -19 -15 -41 -15 l-35 0 0 51 0 50 43 -3 c35 -2 43 -7
45 -25 5 -36 30 -27 38 12 3 20 5 37 3 39 -8 7 -231 11 -235 4z"/>
</g>
</svg>
